<svg width="78" height="118" viewBox="0 0 78 118" fill="none" xmlns="http://www.w3.org/2000/svg">
<path d="M18.4714 117.059C16.9793 117.059 15.7294 116.551 14.7218 115.537C13.7142 114.522 13.2086 113.268 13.2051 111.774C13.2016 110.28 13.7072 109.026 14.7218 108.011C15.7364 106.997 16.9863 106.489 18.4714 106.489C19.9565 106.489 21.2081 106.997 22.2263 108.011C23.2444 109.026 23.7482 110.28 23.7377 111.774C23.7272 113.268 23.2216 114.524 22.221 115.542C21.2204 116.56 19.9705 117.066 18.4714 117.059ZM39.5366 117.059C38.0445 117.059 36.7946 116.551 35.787 115.537C34.7794 114.522 34.2738 113.268 34.2703 111.774C34.2668 110.28 34.7724 109.026 35.787 108.011C36.8016 106.997 38.0515 106.489 39.5366 106.489C41.0217 106.489 42.2733 106.997 43.2915 108.011C44.3096 109.026 44.8135 110.28 44.8029 111.774C44.7924 113.268 44.2868 114.524 43.2862 115.542C42.2856 116.56 41.0358 117.066 39.5366 117.059ZM60.6018 117.059C59.1097 117.059 57.8598 116.551 56.8522 115.537C55.8446 114.522 55.339 113.268 55.3355 111.774C55.332 110.28 55.8376 109.026 56.8522 108.011C57.8669 106.997 59.1167 106.489 60.6018 106.489C62.0869 106.489 63.3385 106.997 64.3567 108.011C65.3749 109.026 65.8787 110.28 65.8681 111.774C65.8576 113.268 65.352 114.524 64.3514 115.542C63.3508 116.56 62.101 117.066 60.6018 117.059Z" fill="#0B284A"/>
<path d="M38.7887 65.6771C34.1262 65.6771 30.163 64.0808 26.8993 60.8881C23.6355 57.6955 22.0036 53.8187 22.0036 49.2578V16.4193C22.0036 11.8584 23.6355 7.98159 26.8993 4.78895C30.163 1.59632 34.1262 0 38.7887 0C43.4513 0 47.4144 1.59632 50.6782 4.78895C53.942 7.98159 55.5739 11.8584 55.5739 16.4193V49.2578C55.5739 53.8187 53.942 57.6955 50.6782 60.8881C47.4144 64.0808 43.4513 65.6771 38.7887 65.6771ZM33.1937 98.5156V87.159C24.6146 85.9731 17.272 82.4156 11.166 76.4864C5.05993 70.5573 1.35228 63.351 0.0430387 54.8677C-0.143463 53.317 0.276168 51.9944 1.30193 50.8997C2.32768 49.8051 3.63319 49.2578 5.21846 49.2578C6.80372 49.2578 8.13347 49.7832 9.20772 50.8341C10.282 51.8849 11.0037 53.1838 11.373 54.7309C12.6785 61.1162 15.9199 66.3612 21.0972 70.466C26.2745 74.5709 32.1716 76.6233 38.7887 76.6233C45.5028 76.6233 51.4242 74.549 56.553 70.4004C61.6818 66.2518 64.8989 61.0286 66.2044 54.7309C66.5774 53.1802 67.3011 51.8813 68.3753 50.8341C69.4496 49.7869 70.7775 49.2615 72.359 49.2578C73.9405 49.2542 75.246 49.8015 76.2755 50.8997C77.305 51.998 77.7246 53.3207 77.5344 54.8677C76.2289 63.1686 72.5455 70.3292 66.4842 76.3496C60.4229 82.37 53.0561 85.9731 44.3838 87.159V98.5156C44.3838 100.066 43.8466 101.367 42.7724 102.418C41.6981 103.469 40.3703 103.992 38.7887 103.989C37.2072 103.985 35.8793 103.46 34.805 102.412C33.7308 101.365 33.1937 100.066 33.1937 98.5156Z" fill="#0B284A"/>
</svg>
