<svg width="466" height="169" viewBox="0 0 466 169" fill="none" xmlns="http://www.w3.org/2000/svg">
<path d="M25.5508 137.28L12.983 168.428H10.1514L14.2631 158.343L5.57422 137.28H8.56101L15.7758 155.356L22.7579 137.28H25.5508Z" fill="#0B284A"/>
<path d="M38.5034 158.769C36.5122 158.769 34.715 158.33 33.1117 157.451C31.5343 156.545 30.2801 155.278 29.3491 153.649C28.444 151.994 27.9915 150.068 27.9915 147.87C27.9915 145.671 28.457 143.758 29.3879 142.129C30.3189 140.474 31.586 139.207 33.1893 138.327C34.7926 137.422 36.5898 136.97 38.581 136.97C40.5722 136.97 42.3695 137.422 43.9727 138.327C45.6019 139.207 46.869 140.474 47.7741 142.129C48.7051 143.758 49.1705 145.671 49.1705 147.87C49.1705 150.042 48.7051 151.955 47.7741 153.61C46.8432 155.265 45.5631 156.545 43.934 157.451C42.3048 158.33 40.4946 158.769 38.5034 158.769ZM38.5034 156.403C39.8999 156.403 41.1928 156.093 42.3824 155.472C43.5719 154.826 44.5287 153.869 45.2528 152.602C46.0027 151.309 46.3777 149.731 46.3777 147.87C46.3777 146.008 46.0157 144.443 45.2916 143.176C44.5675 141.883 43.6107 140.926 42.4212 140.306C41.2316 139.659 39.9386 139.336 38.5422 139.336C37.1458 139.336 35.8528 139.659 34.6633 140.306C33.4737 140.926 32.5169 141.883 31.7929 143.176C31.0947 144.443 30.7455 146.008 30.7455 147.87C30.7455 149.731 31.0947 151.309 31.7929 152.602C32.5169 153.869 33.4608 154.826 34.6245 155.472C35.814 156.093 37.107 156.403 38.5034 156.403Z" fill="#0B284A"/>
<path d="M72.4675 137.28V158.459H69.7523V154.735C69.1317 156.054 68.1748 157.063 66.8819 157.761C65.5889 158.459 64.1407 158.808 62.5374 158.808C60.0032 158.808 57.9344 158.032 56.3311 156.481C54.7278 154.903 53.9262 152.628 53.9262 149.654V137.28H56.6027V149.344C56.6027 151.645 57.1716 153.403 58.3094 154.619C59.4731 155.834 61.0505 156.442 63.0417 156.442C65.0846 156.442 66.7138 155.795 67.9292 154.503C69.1446 153.21 69.7523 151.309 69.7523 148.8V137.28H72.4675Z" fill="#0B284A"/>
<path d="M81.3818 141.043C81.9766 139.724 82.8817 138.702 84.0971 137.978C85.3384 137.254 86.8512 136.892 88.6355 136.892V139.724H87.8985C85.9331 139.724 84.3557 140.254 83.1662 141.314C81.9766 142.374 81.3818 144.146 81.3818 146.628V158.459H78.6666V137.28H81.3818V141.043Z" fill="#0B284A"/>
<path d="M110.89 155.821L118.027 137.28H120.897L112.402 158.459H109.338L100.843 137.28H103.752L110.89 155.821Z" fill="#0B284A"/>
<path d="M133.848 158.769C131.857 158.769 130.06 158.33 128.456 157.451C126.879 156.545 125.625 155.278 124.694 153.649C123.789 151.994 123.336 150.068 123.336 147.87C123.336 145.671 123.802 143.758 124.733 142.129C125.664 140.474 126.931 139.207 128.534 138.327C130.137 137.422 131.935 136.97 133.926 136.97C135.917 136.97 137.714 137.422 139.318 138.327C140.947 139.207 142.214 140.474 143.119 142.129C144.05 143.758 144.515 145.671 144.515 147.87C144.515 150.042 144.05 151.955 143.119 153.61C142.188 155.265 140.908 156.545 139.279 157.451C137.65 158.33 135.839 158.769 133.848 158.769ZM133.848 156.403C135.245 156.403 136.538 156.093 137.727 155.472C138.917 154.826 139.874 153.869 140.598 152.602C141.348 151.309 141.722 149.731 141.722 147.87C141.722 146.008 141.36 144.443 140.636 143.176C139.912 141.883 138.955 140.926 137.766 140.306C136.576 139.659 135.283 139.336 133.887 139.336C132.491 139.336 131.198 139.659 130.008 140.306C128.819 140.926 127.862 141.883 127.138 143.176C126.439 144.443 126.09 146.008 126.09 147.87C126.09 149.731 126.439 151.309 127.138 152.602C127.862 153.869 128.806 154.826 129.969 155.472C131.159 156.093 132.452 156.403 133.848 156.403Z" fill="#0B284A"/>
<path d="M150.823 133.285C150.279 133.285 149.814 133.091 149.426 132.703C149.038 132.315 148.844 131.837 148.844 131.268C148.844 130.699 149.038 130.233 149.426 129.871C149.814 129.483 150.279 129.289 150.823 129.289C151.366 129.289 151.831 129.483 152.219 129.871C152.607 130.233 152.801 130.699 152.801 131.268C152.801 131.837 152.607 132.315 152.219 132.703C151.831 133.091 151.366 133.285 150.823 133.285ZM152.18 137.28V158.459H149.465V137.28H152.18Z" fill="#0B284A"/>
<path d="M157.088 147.87C157.088 145.671 157.527 143.758 158.406 142.129C159.286 140.474 160.501 139.207 162.053 138.327C163.604 137.422 165.376 136.97 167.367 136.97C169.979 136.97 172.125 137.616 173.806 138.909C175.513 140.202 176.612 141.961 177.103 144.185H174.194C173.832 142.659 173.043 141.469 171.828 140.616C170.638 139.737 169.151 139.297 167.367 139.297C165.945 139.297 164.665 139.62 163.527 140.267C162.389 140.913 161.484 141.883 160.811 143.176C160.165 144.443 159.842 146.008 159.842 147.87C159.842 149.731 160.165 151.309 160.811 152.602C161.484 153.895 162.389 154.865 163.527 155.511C164.665 156.158 165.945 156.481 167.367 156.481C169.151 156.481 170.638 156.054 171.828 155.201C173.043 154.321 173.832 153.106 174.194 151.555H177.103C176.612 153.727 175.513 155.472 173.806 156.791C172.099 158.11 169.953 158.769 167.367 158.769C165.376 158.769 163.604 158.33 162.053 157.451C160.501 156.545 159.286 155.278 158.406 153.649C157.527 151.994 157.088 150.068 157.088 147.87Z" fill="#0B284A"/>
<path d="M201.28 146.783C201.28 147.714 201.254 148.425 201.202 148.917H183.631C183.708 150.52 184.096 151.891 184.794 153.029C185.492 154.166 186.41 155.033 187.548 155.627C188.686 156.196 189.927 156.481 191.272 156.481C193.031 156.481 194.505 156.054 195.694 155.201C196.909 154.347 197.711 153.197 198.099 151.748H200.969C200.452 153.817 199.34 155.511 197.634 156.83C195.953 158.123 193.832 158.769 191.272 158.769C189.281 158.769 187.497 158.33 185.919 157.451C184.342 156.545 183.1 155.278 182.195 153.649C181.316 151.994 180.876 150.068 180.876 147.87C180.876 145.671 181.316 143.745 182.195 142.09C183.075 140.435 184.303 139.168 185.88 138.289C187.458 137.409 189.255 136.97 191.272 136.97C193.289 136.97 195.048 137.409 196.547 138.289C198.073 139.168 199.237 140.357 200.038 141.857C200.866 143.331 201.28 144.973 201.28 146.783ZM198.526 146.706C198.552 145.128 198.228 143.784 197.556 142.672C196.909 141.56 196.017 140.719 194.879 140.15C193.742 139.582 192.5 139.297 191.156 139.297C189.139 139.297 187.419 139.944 185.997 141.237C184.574 142.53 183.786 144.353 183.631 146.706H198.526Z" fill="#0B284A"/>
<path d="M218.25 133.285C217.706 133.285 217.241 133.091 216.853 132.703C216.465 132.315 216.271 131.837 216.271 131.268C216.271 130.699 216.465 130.233 216.853 129.871C217.241 129.483 217.706 129.289 218.25 129.289C218.793 129.289 219.258 129.483 219.646 129.871C220.034 130.233 220.228 130.699 220.228 131.268C220.228 131.837 220.034 132.315 219.646 132.703C219.258 133.091 218.793 133.285 218.25 133.285ZM219.607 137.28V158.459H216.892V137.28H219.607Z" fill="#0B284A"/>
<path d="M233.048 158.769C230.617 158.769 228.626 158.213 227.075 157.101C225.549 155.964 224.696 154.425 224.515 152.485H227.307C227.437 153.675 227.993 154.645 228.975 155.395C229.984 156.119 231.329 156.481 233.01 156.481C234.484 156.481 235.634 156.132 236.462 155.433C237.315 154.735 237.742 153.869 237.742 152.835C237.742 152.11 237.509 151.516 237.044 151.05C236.578 150.585 235.983 150.223 235.259 149.964C234.561 149.68 233.604 149.382 232.389 149.072C230.811 148.658 229.531 148.244 228.549 147.831C227.566 147.417 226.726 146.809 226.027 146.008C225.355 145.18 225.019 144.081 225.019 142.711C225.019 141.676 225.329 140.719 225.95 139.84C226.57 138.961 227.45 138.263 228.588 137.745C229.725 137.228 231.018 136.97 232.466 136.97C234.742 136.97 236.578 137.552 237.975 138.715C239.371 139.853 240.121 141.43 240.224 143.448H237.509C237.432 142.206 236.94 141.211 236.035 140.461C235.156 139.685 233.94 139.297 232.389 139.297C231.018 139.297 229.906 139.62 229.053 140.267C228.2 140.913 227.773 141.715 227.773 142.672C227.773 143.499 228.019 144.185 228.51 144.728C229.027 145.245 229.661 145.659 230.411 145.969C231.161 146.253 232.169 146.577 233.436 146.939C234.962 147.352 236.177 147.753 237.082 148.141C237.987 148.529 238.763 149.098 239.41 149.848C240.056 150.598 240.392 151.593 240.418 152.835C240.418 153.972 240.108 154.994 239.487 155.899C238.867 156.778 238 157.476 236.888 157.994C235.777 158.511 234.496 158.769 233.048 158.769Z" fill="#0B284A"/>
<path d="M273.629 137.28L261.061 168.428H258.23L262.341 158.343L253.652 137.28H256.639L263.854 155.356L270.836 137.28H273.629Z" fill="#0B284A"/>
<path d="M286.582 158.769C284.591 158.769 282.793 158.33 281.19 157.451C279.613 156.545 278.358 155.278 277.427 153.649C276.522 151.994 276.07 150.068 276.07 147.87C276.07 145.671 276.535 143.758 277.466 142.129C278.397 140.474 279.664 139.207 281.268 138.327C282.871 137.422 284.668 136.97 286.659 136.97C288.65 136.97 290.448 137.422 292.051 138.327C293.68 139.207 294.947 140.474 295.852 142.129C296.783 143.758 297.249 145.671 297.249 147.87C297.249 150.042 296.783 151.955 295.852 153.61C294.921 155.265 293.641 156.545 292.012 157.451C290.383 158.33 288.573 158.769 286.582 158.769ZM286.582 156.403C287.978 156.403 289.271 156.093 290.461 155.472C291.65 154.826 292.607 153.869 293.331 152.602C294.081 151.309 294.456 149.731 294.456 147.87C294.456 146.008 294.094 144.443 293.37 143.176C292.646 141.883 291.689 140.926 290.499 140.306C289.31 139.659 288.017 139.336 286.62 139.336C285.224 139.336 283.931 139.659 282.742 140.306C281.552 140.926 280.595 141.883 279.871 143.176C279.173 144.443 278.824 146.008 278.824 147.87C278.824 149.731 279.173 151.309 279.871 152.602C280.595 153.869 281.539 154.826 282.703 155.472C283.892 156.093 285.185 156.403 286.582 156.403Z" fill="#0B284A"/>
<path d="M320.546 137.28V158.459H317.831V154.735C317.21 156.054 316.253 157.063 314.96 157.761C313.667 158.459 312.219 158.808 310.616 158.808C308.081 158.808 306.013 158.032 304.409 156.481C302.806 154.903 302.004 152.628 302.004 149.654V137.28H304.681V149.344C304.681 151.645 305.25 153.403 306.388 154.619C307.551 155.834 309.129 156.442 311.12 156.442C313.163 156.442 314.792 155.795 316.007 154.503C317.223 153.21 317.831 151.309 317.831 148.8V137.28H320.546Z" fill="#0B284A"/>
<path d="M329.46 141.043C330.055 139.724 330.96 138.702 332.175 137.978C333.417 137.254 334.929 136.892 336.714 136.892V139.724H335.977C334.011 139.724 332.434 140.254 331.244 141.314C330.055 142.374 329.46 144.146 329.46 146.628V158.459H326.745V137.28H329.46V141.043Z" fill="#0B284A"/>
<path d="M358.735 158.769C356.304 158.769 354.313 158.213 352.762 157.101C351.236 155.964 350.383 154.425 350.202 152.485H352.994C353.124 153.675 353.68 154.645 354.662 155.395C355.671 156.119 357.016 156.481 358.696 156.481C360.17 156.481 361.321 156.132 362.149 155.433C363.002 154.735 363.429 153.869 363.429 152.835C363.429 152.11 363.196 151.516 362.731 151.05C362.265 150.585 361.67 150.223 360.946 149.964C360.248 149.68 359.291 149.382 358.076 149.072C356.498 148.658 355.218 148.244 354.236 147.831C353.253 147.417 352.413 146.809 351.714 146.008C351.042 145.18 350.706 144.081 350.706 142.711C350.706 141.676 351.016 140.719 351.637 139.84C352.257 138.961 353.137 138.263 354.274 137.745C355.412 137.228 356.705 136.97 358.153 136.97C360.429 136.97 362.265 137.552 363.661 138.715C365.058 139.853 365.808 141.43 365.911 143.448H363.196C363.118 142.206 362.627 141.211 361.722 140.461C360.843 139.685 359.627 139.297 358.076 139.297C356.705 139.297 355.593 139.62 354.74 140.267C353.887 140.913 353.46 141.715 353.46 142.672C353.46 143.499 353.706 144.185 354.197 144.728C354.714 145.245 355.348 145.659 356.098 145.969C356.847 146.253 357.856 146.577 359.123 146.939C360.649 147.352 361.864 147.753 362.769 148.141C363.674 148.529 364.45 149.098 365.097 149.848C365.743 150.598 366.079 151.593 366.105 152.835C366.105 153.972 365.795 154.994 365.174 155.899C364.554 156.778 363.687 157.476 362.575 157.994C361.463 158.511 360.183 158.769 358.735 158.769Z" fill="#0B284A"/>
<path d="M381.302 136.892C382.905 136.892 384.34 137.228 385.607 137.901C386.9 138.573 387.909 139.607 388.633 141.004C389.383 142.374 389.758 144.055 389.758 146.046V158.459H387.081V146.357C387.081 144.055 386.499 142.297 385.336 141.081C384.198 139.866 382.633 139.258 380.642 139.258C378.599 139.258 376.97 139.905 375.755 141.198C374.539 142.491 373.932 144.391 373.932 146.9V158.459H371.216V129.755H373.932V140.887C374.604 139.62 375.587 138.638 376.88 137.939C378.198 137.241 379.672 136.892 381.302 136.892Z" fill="#0B284A"/>
<path d="M397.12 133.285C396.577 133.285 396.112 133.091 395.724 132.703C395.336 132.315 395.142 131.837 395.142 131.268C395.142 130.699 395.336 130.233 395.724 129.871C396.112 129.483 396.577 129.289 397.12 129.289C397.663 129.289 398.129 129.483 398.517 129.871C398.905 130.233 399.099 130.699 399.099 131.268C399.099 131.837 398.905 132.315 398.517 132.703C398.129 133.091 397.663 133.285 397.12 133.285ZM398.478 137.28V158.459H395.763V137.28H398.478Z" fill="#0B284A"/>
<path d="M423.789 146.783C423.789 147.714 423.763 148.425 423.711 148.917H406.14C406.217 150.52 406.605 151.891 407.303 153.029C408.001 154.166 408.92 155.033 410.057 155.627C411.195 156.196 412.436 156.481 413.781 156.481C415.54 156.481 417.014 156.054 418.203 155.201C419.419 154.347 420.22 153.197 420.608 151.748H423.478C422.961 153.817 421.849 155.511 420.143 156.83C418.462 158.123 416.341 158.769 413.781 158.769C411.79 158.769 410.006 158.33 408.428 157.451C406.851 156.545 405.609 155.278 404.704 153.649C403.825 151.994 403.386 150.068 403.386 147.87C403.386 145.671 403.825 143.745 404.704 142.09C405.584 140.435 406.812 139.168 408.389 138.289C409.967 137.409 411.764 136.97 413.781 136.97C415.798 136.97 417.557 137.409 419.056 138.289C420.582 139.168 421.746 140.357 422.548 141.857C423.375 143.331 423.789 144.973 423.789 146.783ZM421.035 146.706C421.061 145.128 420.737 143.784 420.065 142.672C419.418 141.56 418.526 140.719 417.389 140.15C416.251 139.582 415.009 139.297 413.665 139.297C411.648 139.297 409.928 139.944 408.506 141.237C407.083 142.53 406.295 144.353 406.14 146.706H421.035Z" fill="#0B284A"/>
<path d="M431.472 129.755V158.459H428.757V129.755H431.472Z" fill="#0B284A"/>
<path d="M436.379 147.831C436.379 145.659 436.819 143.758 437.698 142.129C438.577 140.474 439.78 139.207 441.306 138.327C442.857 137.422 444.603 136.97 446.542 136.97C448.404 136.97 450.085 137.422 451.585 138.327C453.085 139.232 454.184 140.409 454.882 141.857V129.755H457.597V158.459H454.882V153.727C454.235 155.201 453.175 156.416 451.701 157.373C450.227 158.304 448.495 158.769 446.503 158.769C444.564 158.769 442.818 158.317 441.267 157.412C439.741 156.507 438.539 155.227 437.659 153.572C436.806 151.917 436.379 150.003 436.379 147.831ZM454.882 147.87C454.882 146.163 454.533 144.663 453.835 143.37C453.136 142.077 452.18 141.081 450.964 140.383C449.775 139.685 448.456 139.336 447.008 139.336C445.508 139.336 444.163 139.672 442.974 140.344C441.784 141.017 440.84 141.999 440.142 143.292C439.47 144.559 439.133 146.072 439.133 147.831C439.133 149.563 439.47 151.089 440.142 152.408C440.84 153.701 441.784 154.696 442.974 155.395C444.163 156.067 445.508 156.403 447.008 156.403C448.456 156.403 449.775 156.054 450.964 155.356C452.18 154.658 453.136 153.662 453.835 152.369C454.533 151.076 454.882 149.576 454.882 147.87Z" fill="#0B284A"/>
<path d="M466 107.898C465.763 108.844 465.468 109.671 465.114 110.38C464.759 110.97 464.464 111.62 464.227 112.329C463.637 112.565 463.046 112.861 462.455 113.215C461.983 113.452 461.392 113.452 460.683 113.215C459.029 113.452 457.611 113.629 456.429 113.747C455.366 113.747 454.48 113.57 453.771 113.215C452.707 113.452 451.998 113.511 451.644 113.393C451.408 113.156 451.112 113.097 450.758 113.215C448.867 113.097 447.627 113.215 447.036 113.57C446.445 113.806 445.736 114.101 444.909 114.456C444.082 114.101 443.61 113.983 443.491 114.101C443.373 114.22 443.196 114.279 442.96 114.279L441.365 113.215C441.128 113.097 440.833 112.92 440.478 112.684C440.124 112.447 439.829 112.27 439.592 112.152C439.829 111.443 439.651 110.852 439.061 110.38C438.588 109.907 438.234 109.375 437.997 108.785C438.115 108.43 438.174 108.076 438.174 107.721C438.174 107.367 438.234 107.012 438.352 106.658C437.997 105.949 437.879 105.476 437.997 105.24C438.115 105.004 438.115 104.767 437.997 104.531C437.643 103.822 437.525 103.408 437.643 103.29C437.761 103.172 437.82 102.995 437.82 102.759C437.111 101.813 436.698 101.341 436.579 101.341C436.461 101.223 436.284 101.282 436.048 101.518C435.221 102.227 434.689 102.64 434.453 102.759C434.216 102.877 433.98 102.936 433.744 102.936C433.507 103.408 433.212 103.645 432.857 103.645C432.621 103.645 432.444 103.94 432.326 104.531C431.853 104.649 431.499 104.885 431.262 105.24C431.144 105.476 430.908 105.712 430.553 105.949C429.845 106.067 429.372 106.185 429.136 106.303C428.899 106.421 428.604 106.48 428.249 106.48C427.541 106.953 427.127 107.189 427.009 107.189C426.891 107.071 426.713 107.071 426.477 107.189C425.65 107.426 425 107.662 424.528 107.898C424.173 108.135 423.523 108.135 422.578 107.898C421.987 108.253 421.337 108.548 420.629 108.785C419.92 109.021 419.27 109.021 418.679 108.785C417.734 109.375 416.789 109.73 415.843 109.848C415.016 109.848 414.071 109.789 413.008 109.671C412.771 109.907 412.299 109.966 411.59 109.848C410.999 109.73 410.408 109.966 409.817 110.557C409.227 110.321 408.695 110.321 408.222 110.557C407.75 110.675 407.218 110.793 406.627 110.911C406.273 110.911 405.741 110.911 405.032 110.911C404.323 110.911 403.555 110.911 402.728 110.911C402.019 110.793 401.31 110.793 400.601 110.911C400.011 110.911 399.597 111.029 399.361 111.266C398.297 110.675 397.175 110.498 395.993 110.734C394.812 110.852 393.689 110.793 392.626 110.557C392.153 110.321 391.681 110.143 391.208 110.025C390.854 109.789 390.44 109.612 389.968 109.493C389.495 109.375 388.727 109.198 387.663 108.962C386.718 108.725 386.127 108.371 385.891 107.898C384.473 107.426 383.469 107.071 382.878 106.835C382.287 106.48 381.638 106.303 380.929 106.303C380.338 105.831 379.747 105.417 379.156 105.063C378.684 104.59 378.152 104.236 377.561 103.999C376.143 103.054 375.198 102.286 374.726 101.695C373.899 101.223 373.367 100.868 373.131 100.632C373.012 100.396 373.012 100.159 373.131 99.9229C372.303 98.5051 371.299 97.5008 370.118 96.91C369.763 95.9648 369.231 95.1968 368.523 94.606C367.814 93.8971 367.223 93.1291 366.75 92.302C366.514 91.8294 366.218 91.1204 365.864 90.1752C365.628 89.23 365.391 88.6392 365.155 88.4029C365.155 88.4029 365.096 88.1075 364.978 87.5167C364.978 86.926 364.919 86.2761 364.801 85.5672C364.682 84.8583 364.564 84.2084 364.446 83.6177C364.328 83.0269 364.21 82.6724 364.092 82.5543L363.914 80.073C364.033 79.4823 363.974 78.8915 363.737 78.3007C363.619 77.5918 363.737 77.0601 364.092 76.7056C363.619 76.233 363.442 75.8195 363.56 75.465C363.796 74.9924 363.974 74.4607 364.092 73.8699C363.974 73.0428 363.974 72.5702 364.092 72.4521C364.21 72.3339 364.269 72.1567 364.269 71.9204C364.151 71.0933 364.092 70.5025 364.092 70.1481C364.21 69.7936 364.269 69.4982 364.269 69.2619C364.033 67.8441 364.033 66.9579 364.269 66.6034C364.505 66.249 364.742 65.8945 364.978 65.5401L364.623 63.5905C365.096 62.2908 365.391 61.5228 365.51 61.2865C365.628 61.0502 365.687 60.8139 365.687 60.5776C365.923 59.9868 365.982 59.396 365.864 58.8053C365.746 58.0963 365.923 57.4465 366.396 56.8557C366.159 55.9105 366.1 55.0243 366.218 54.1972C366.337 53.3702 366.514 52.484 366.75 51.5388C366.987 50.4754 367.164 49.7074 367.282 49.2348C367.518 48.644 367.518 48.2305 367.282 47.9941C366.691 47.2852 365.569 47.0489 363.914 47.2852C362.26 47.5215 361.079 47.6397 360.37 47.6397C359.543 47.6397 358.716 47.6397 357.889 47.6397C357.18 47.6397 356.412 47.7578 355.585 47.9941C355.348 47.5215 354.994 47.2852 354.521 47.2852C354.167 47.2852 353.753 47.2261 353.281 47.108C352.808 46.6354 352.454 46.3991 352.217 46.3991C351.863 46.3991 351.567 46.2809 351.331 46.0446C351.095 45.8083 350.918 45.5129 350.799 45.1584C350.563 44.804 350.386 44.5086 350.268 44.2723C349.677 43.5634 349.322 43.0317 349.204 42.6772C348.968 42.3227 349.027 41.6729 349.382 40.7277C349.736 39.5461 350.15 38.9553 350.622 38.9553C350.977 38.8372 351.095 38.5418 350.977 38.0692C351.449 38.3055 351.863 38.3055 352.217 38.0692C352.454 37.7147 352.749 37.4784 353.103 37.3603C353.458 37.3603 353.93 37.3603 354.521 37.3603C355.112 37.2421 355.585 37.183 355.939 37.183C357.121 37.5375 357.711 37.6556 357.711 37.5375C357.83 37.4193 358.007 37.3603 358.243 37.3603C360.252 37.5966 361.788 37.6556 362.851 37.5375C363.914 37.3012 365.037 37.0649 366.218 36.8286C367.282 36.9467 368.05 37.124 368.523 37.3603C368.995 37.4784 369.468 37.4784 369.94 37.3603C370.177 37.3603 370.531 37.3012 371.004 37.183C371.595 37.0649 372.126 36.9467 372.599 36.8286C373.19 36.7104 373.721 36.7104 374.194 36.8286C374.667 36.8286 374.903 37.0649 374.903 37.5375C375.494 37.6556 375.907 37.892 376.143 38.2464C376.498 38.4827 376.971 38.719 377.561 38.9553C377.916 39.9006 377.975 40.4914 377.739 40.7277C377.502 40.8458 377.62 41.023 378.093 41.2594C378.329 41.732 378.388 42.4409 378.27 43.3861C378.27 44.3314 378.388 44.9221 378.625 45.1584C378.507 45.3948 378.388 45.8083 378.27 46.3991C378.152 46.9898 378.034 47.6397 377.916 48.3486C377.916 49.0575 377.857 49.7665 377.739 50.4754C377.739 51.1843 377.739 51.6569 377.739 51.8932C377.857 52.7203 377.798 53.1929 377.561 53.3111C377.443 53.4292 377.384 53.6655 377.384 54.02C377.384 54.4926 377.384 55.0243 377.384 55.6151C377.384 56.0877 377.384 56.4422 377.384 56.6785C377.266 57.1511 377.089 57.5056 376.852 57.7419C376.734 57.86 376.616 58.0373 376.498 58.2736C376.262 58.8643 376.262 59.5733 376.498 60.4003C376.734 61.1093 376.675 61.7591 376.321 62.3499C376.321 63.7677 376.203 64.772 375.966 65.3628C375.73 65.9536 375.494 66.4853 375.257 66.9579C375.139 67.4305 375.021 67.7259 374.903 67.8441C375.021 68.7893 375.021 69.6164 374.903 70.3253C374.903 71.0342 374.726 71.8022 374.371 72.6293C374.371 73.929 374.312 74.8742 374.194 75.465C374.43 75.8195 374.548 76.233 374.548 76.7056C374.548 77.0601 374.548 77.4736 374.548 77.9462C374.548 78.7733 374.607 79.305 374.726 79.5413C374.844 79.6595 374.903 79.8367 374.903 80.073C375.021 80.3093 375.021 81.0773 374.903 82.377C374.785 83.6767 374.667 84.4447 374.548 84.681C374.667 85.1537 374.844 85.5081 375.08 85.7444C375.316 85.8626 375.435 86.217 375.435 86.8078C376.143 88.8164 376.911 90.1161 377.739 90.7069C378.684 91.1795 379.452 91.8884 380.043 92.8337C380.87 93.8971 381.519 94.606 381.992 94.9605C382.465 95.1968 382.819 95.6103 383.055 96.2011C383.646 96.2011 384.178 96.3783 384.651 96.7328C385.123 97.0872 385.655 97.2645 386.246 97.2645C386.6 97.9734 387.132 98.446 387.841 98.6823C388.668 98.9186 389.436 99.0959 390.145 99.214C390.381 99.8048 390.736 100.041 391.208 99.9229C391.681 99.8048 392.035 99.7457 392.272 99.7457C393.099 100.336 393.985 100.573 394.93 100.455C395.875 100.336 396.761 100.455 397.588 100.809C397.707 100.809 398.061 100.75 398.652 100.632C399.361 100.514 400.129 100.455 400.956 100.455C401.783 100.336 402.551 100.277 403.26 100.277C403.969 100.277 404.441 100.277 404.678 100.277C406.214 100.514 407.454 100.573 408.4 100.455C409.463 100.218 410.349 99.982 411.058 99.7457C411.412 99.6276 411.767 99.5094 412.121 99.3912C412.476 99.1549 412.83 98.9777 413.185 98.8595C413.539 98.8595 414.248 98.8595 415.312 98.8595C416.493 98.7414 417.202 98.6232 417.438 98.5051C418.62 98.2688 419.565 97.7962 420.274 97.0872C421.101 97.4417 421.574 97.5599 421.692 97.4417C421.928 97.2054 422.165 97.1463 422.401 97.2645C423.819 96.3192 424.823 95.6103 425.414 95.1377C426.005 94.5469 426.773 94.1334 427.718 93.8971C428.663 93.07 429.313 92.1838 429.667 91.2386C430.14 91.2386 430.494 91.0023 430.731 90.5297C430.967 90.0571 431.262 89.7026 431.617 89.4663C431.853 89.1118 432.149 88.462 432.503 87.5167C432.857 86.5715 433.153 85.6263 433.389 84.681C433.744 83.6177 433.98 82.6133 434.098 81.6681C434.216 80.7229 434.157 80.0139 433.921 79.5413C434.275 78.2416 434.512 77.2373 434.63 76.5284C434.866 75.8195 434.866 75.1696 434.63 74.5789C434.866 72.2158 434.984 70.1481 434.984 68.3758C435.102 66.6034 434.925 64.8902 434.453 63.236C435.043 62.0545 435.221 61.4047 434.984 61.2865C434.748 61.0502 434.63 60.4594 434.63 59.5142C434.748 58.2145 434.689 57.3874 434.453 57.0329C434.334 56.6785 434.275 56.324 434.275 55.9696C434.039 54.788 433.98 53.6655 434.098 52.6022C434.334 51.4206 434.394 50.2982 434.275 49.2348C433.685 48.7621 432.976 48.644 432.149 48.8803C430.849 48.7621 429.963 48.8803 429.49 49.2348C429.136 49.4711 428.663 49.4711 428.072 49.2348L426.654 48.1714C425.945 47.8169 425.473 47.4625 425.237 47.108C425.118 46.6354 424.764 46.34 424.173 46.2218C424.173 45.7492 423.996 45.4538 423.641 45.3357C423.405 45.2175 423.228 44.9812 423.11 44.6267C423.346 44.1541 423.346 43.7406 423.11 43.3861C422.992 43.0317 422.992 42.6772 423.11 42.3227C423.228 41.732 423.405 41.3184 423.641 41.0821C423.878 40.7277 423.996 40.255 423.996 39.6643C424.35 39.428 424.705 39.3689 425.059 39.487C425.532 39.6052 426.005 39.6052 426.477 39.487C427.541 39.0144 428.19 38.7781 428.427 38.7781C428.663 38.7781 428.84 38.66 428.958 38.4237C431.203 38.5418 433.094 38.4237 434.63 38.0692C436.166 37.5966 437.761 37.4193 439.415 37.5375C440.833 37.0649 441.778 36.9467 442.251 37.183C442.842 37.4193 443.432 37.4784 444.023 37.3603C444.968 37.124 445.5 37.0649 445.618 37.183C445.736 37.183 445.914 37.183 446.15 37.183C447.213 36.8286 447.922 36.7104 448.277 36.8286C448.749 36.8286 449.163 36.6513 449.517 36.2969C449.872 36.5332 450.167 36.7695 450.403 37.0058C450.758 37.124 451.053 37.3012 451.29 37.5375C452.471 37.4193 453.239 37.7147 453.594 38.4237C454.066 39.1326 454.657 39.5461 455.366 39.6643C455.602 40.8458 455.72 41.6729 455.72 42.1455C455.839 42.6181 455.839 42.9726 455.72 43.2089C455.72 43.4452 455.602 43.7406 455.366 44.0951C455.248 44.4495 455.13 45.0994 455.011 46.0446C454.539 46.0446 454.125 46.1628 453.771 46.3991C453.534 46.5172 453.18 46.7535 452.707 47.108C452.353 47.3443 451.821 47.5806 451.112 47.8169C450.522 47.9351 449.635 47.9941 448.454 47.9941C448.099 47.876 447.568 47.9351 446.859 48.1714C446.268 48.2895 445.854 48.3486 445.618 48.3486C445.382 48.9394 445.382 49.5302 445.618 50.1209C445.854 50.7117 445.736 51.3025 445.264 51.8932C445.736 52.9566 445.795 53.6655 445.441 54.02C445.205 54.3745 445.086 55.0243 445.086 55.9696C445.323 57.1511 445.441 58.0373 445.441 58.628C445.559 59.2188 445.5 59.6323 445.264 59.8686C445.5 61.1683 445.677 62.1136 445.795 62.7043C445.914 63.177 445.854 63.6496 445.618 64.1222C445.854 64.4767 445.973 64.9493 445.973 65.5401C445.973 66.0127 446.091 66.3671 446.327 66.6034C446.445 66.9579 446.209 67.3714 445.618 67.8441C445.146 68.3167 445.205 69.3801 445.795 71.0342C445.086 72.9247 445.146 74.8742 445.973 76.8829C445.736 77.8281 445.441 78.537 445.086 79.0096C445.205 79.4823 445.264 79.9549 445.264 80.4275C445.264 80.7819 445.146 81.1955 444.909 81.6681C445.382 82.6133 445.5 83.3223 445.264 83.7949C445.146 84.1493 445.441 84.7992 446.15 85.7444C445.914 86.3352 445.914 86.985 446.15 87.694C446.386 88.2847 446.682 88.8755 447.036 89.4663C447.036 90.1752 446.977 90.9432 446.859 91.7703C446.859 92.4792 446.918 93.1881 447.036 93.8971C447.154 94.4878 447.272 95.0195 447.39 95.4922C447.627 95.8466 447.568 96.3783 447.213 97.0872C447.804 98.6232 448.099 99.7457 448.099 100.455C448.099 101.045 448.395 101.459 448.986 101.695C450.049 102.404 450.64 102.877 450.758 103.113C450.994 103.231 451.23 103.29 451.467 103.29C452.176 103.408 452.648 103.349 452.885 103.113C453.239 102.877 453.712 102.7 454.302 102.581C454.893 102.345 455.661 102.227 456.607 102.227C457.552 102.227 458.32 102.227 458.911 102.227C459.856 102.345 460.328 102.463 460.328 102.581C460.328 102.581 460.447 102.64 460.683 102.759C461.746 103.231 462.396 103.468 462.632 103.468C462.987 103.468 463.341 103.527 463.696 103.645C463.696 103.881 463.932 104.354 464.405 105.063C464.877 105.772 465.232 106.185 465.468 106.303L466 107.898Z" fill="#0B284A"/>
<path d="M351.863 33.993C351.627 34.4656 351.391 34.8201 351.154 35.0564C351.036 35.2927 351.036 35.7062 351.154 36.297C350.564 36.5333 350.091 36.9468 349.736 37.5376C349.5 38.0102 349.146 38.4828 348.673 38.9555C348.791 39.3099 348.791 39.6053 348.673 39.8416C348.673 40.0779 348.673 40.3733 348.673 40.7278C348.319 40.9641 347.964 41.2004 347.61 41.4367C347.373 41.673 347.019 41.9093 346.546 42.1456C345.365 42.5001 344.715 42.9136 344.597 43.3862C344.479 43.8589 344.301 44.2133 344.065 44.4496C343.829 44.6859 343.474 44.9223 343.002 45.1586C342.647 45.2767 342.293 45.4539 341.938 45.6903C341.702 45.9266 341.466 46.2219 341.229 46.5764C340.993 46.8127 340.698 46.9309 340.343 46.9309C340.107 47.6398 339.93 48.0533 339.811 48.1715C339.693 48.2896 339.516 48.4078 339.28 48.526C339.043 48.9986 338.748 49.4712 338.394 49.9438C338.039 50.4164 337.567 50.7709 336.976 51.0072C336.858 51.3617 336.739 51.7161 336.621 52.0706C336.503 52.3069 336.444 52.6614 336.444 53.134C336.09 53.2521 335.44 53.6657 334.495 54.3746C333.549 54.9654 332.899 55.3789 332.545 55.6152C331.954 55.1426 331.245 55.0244 330.418 55.2607C329.591 55.4971 328.823 55.438 328.114 55.0835C327.878 54.8472 327.583 54.1974 327.228 53.134C326.874 51.9524 326.696 51.2435 326.696 51.0072C326.815 49.9438 326.815 49.353 326.696 49.2349C326.578 49.1167 326.578 48.9395 326.696 48.7032C326.815 48.1124 327.051 47.6989 327.405 47.4626C327.878 47.1081 328.41 46.8127 329 46.5764C329.237 45.7493 329.532 45.0404 329.887 44.4496C330.359 43.7407 330.832 43.0318 331.304 42.3229C330.95 41.8502 330.477 41.4958 329.887 41.2595C329.414 40.905 329.119 40.4324 329 39.8416C328.41 39.6053 327.642 39.1327 326.696 38.4238C325.633 38.0693 324.865 37.8921 324.392 37.8921C323.92 37.8921 323.624 37.7148 323.506 37.3604C322.561 37.0059 321.852 36.7696 321.379 36.6515C321.025 36.5333 320.73 36.4151 320.493 36.297C320.257 35.9425 319.784 35.7653 319.075 35.7653C318.485 35.6471 317.835 35.529 317.126 35.4108C316.417 35.2927 315.767 35.2336 315.176 35.2336C314.586 35.1154 314.231 35.0564 314.113 35.0564C313.64 35.0564 313.227 35.1154 312.872 35.2336C312.518 35.3518 312.163 35.4108 311.809 35.4108C311.336 35.4108 310.864 35.4108 310.391 35.4108C310.037 35.2927 309.623 35.2927 309.15 35.4108C308.796 35.529 308.442 35.7062 308.087 35.9425C307.851 36.0607 307.496 36.1788 307.024 36.297C305.606 36.5333 304.72 36.7696 304.365 37.0059C304.129 37.1241 303.833 37.3013 303.479 37.5376C302.061 38.3647 300.761 39.1327 299.58 39.8416C298.517 40.5505 297.453 41.5549 296.39 42.8546C295.445 43.9179 294.736 45.3949 294.263 47.2853C293.909 49.0577 293.613 50.6527 293.377 52.0706C293.377 52.8977 293.377 53.7247 293.377 54.5518C293.495 55.3789 293.79 56.1469 294.263 56.8558C294.736 57.4466 295.267 57.9783 295.858 58.4509C296.567 58.8054 297.217 59.278 297.808 59.8688C298.28 60.2232 298.753 60.5777 299.225 60.9322C299.816 61.2866 300.407 61.4048 300.998 61.2866C303.479 61.9955 305.547 62.6454 307.201 63.2362C308.973 63.7088 310.746 64.0042 312.518 64.1223C313.345 65.0676 314.349 65.5402 315.531 65.5402C316.83 65.5402 317.894 65.6583 318.721 65.8946C319.075 66.0128 319.371 66.19 319.607 66.4263C319.843 66.6626 320.139 66.8989 320.493 67.1353C321.438 67.6079 322.561 67.9623 323.861 68.1986C325.16 68.4349 326.224 68.8485 327.051 69.4393C327.642 69.0848 328.173 69.0848 328.646 69.4393C329.237 69.6756 329.827 69.7346 330.418 69.6165C331.482 70.3254 332.191 70.739 332.545 70.8571C332.899 70.9753 333.254 70.9753 333.608 70.8571C333.963 71.6842 334.554 72.2159 335.381 72.4522C336.326 72.6885 336.917 73.2793 337.153 74.2245C337.626 74.3427 338.039 74.5199 338.394 74.7562C338.866 74.8744 339.339 74.9925 339.811 75.1107C340.048 75.347 340.284 75.6424 340.52 75.9968C340.757 76.2331 341.111 76.4104 341.584 76.5285C341.938 77.3556 342.293 77.8282 342.647 77.9464C343.002 78.0645 343.238 78.3008 343.356 78.6553C343.592 80.0731 343.888 80.9002 344.242 81.1365C344.597 81.2547 344.892 81.4319 345.128 81.6682C345.601 82.9679 345.778 83.9132 345.66 84.5039C345.66 84.9765 345.896 85.331 346.369 85.5673C346.133 86.5125 346.074 87.4578 346.192 88.403C346.31 89.2301 346.31 90.1163 346.192 91.0615C345.719 93.3064 345.483 94.6061 345.483 94.9606C345.601 95.1969 345.187 95.8467 344.242 96.9101C344.36 97.5009 344.242 97.9144 343.888 98.1507C343.651 98.387 343.592 98.7415 343.711 99.2141C343.002 99.4504 342.47 99.9231 342.115 100.632C341.879 101.223 341.347 101.636 340.52 101.873C340.284 102.109 340.107 102.404 339.989 102.759C339.871 103.113 339.693 103.409 339.457 103.645C338.748 103.763 337.921 104.177 336.976 104.886C336.031 105.594 335.322 106.185 334.849 106.658C333.786 106.894 333.018 107.308 332.545 107.898C331.954 107.78 331.541 107.839 331.304 108.076C331.068 108.312 330.773 108.548 330.418 108.785C329.946 108.785 328.882 109.08 327.228 109.671C325.692 110.262 324.865 110.793 324.747 111.266C323.92 111.03 323.388 111.089 323.152 111.443C323.034 111.679 322.856 111.798 322.62 111.798C321.084 111.916 320.021 112.093 319.43 112.329C318.957 112.566 318.426 112.684 317.835 112.684C317.48 112.684 316.83 112.743 315.885 112.861C314.94 112.861 313.936 112.861 312.872 112.861C311.809 112.861 310.805 112.861 309.859 112.861C308.914 112.861 308.264 112.861 307.91 112.861C307.319 112.861 306.728 112.743 306.138 112.506C305.665 112.152 305.133 112.152 304.542 112.506C304.424 111.798 303.952 111.325 303.125 111.089C302.297 110.852 301.589 110.852 300.998 111.089C299.934 110.498 298.93 110.025 297.985 109.671C297.158 109.316 296.272 108.844 295.326 108.253C294.381 107.662 293.495 107.071 292.668 106.481C291.841 105.89 291.309 105.417 291.073 105.063C290.128 104.708 289.596 104.472 289.478 104.354C289.36 104.236 289.301 104.058 289.301 103.822C288.71 103.704 288.178 103.409 287.705 102.936C287.233 102.345 286.76 101.814 286.288 101.341C285.933 100.868 285.461 100.573 284.87 100.455C284.397 100.337 283.925 100.573 283.452 101.164C282.861 101.754 282.389 102.345 282.034 102.936C281.68 103.409 281.443 103.999 281.325 104.708C280.38 104.708 279.73 104.945 279.376 105.417C278.548 105.417 277.662 105.654 276.717 106.126C276.126 105.89 275.476 105.831 274.768 105.949C274.059 105.949 273.409 105.831 272.818 105.594C272.7 105.358 272.582 105.063 272.464 104.708C272.345 104.354 272.109 104.058 271.755 103.822C271.518 102.522 271.459 101.577 271.577 100.986C271.577 100.278 271.636 99.7458 271.755 99.3914C272.7 98.6824 273.35 98.2098 273.704 97.9735C274.177 97.619 274.59 97.2055 274.945 96.7329C275.181 96.4966 275.358 96.1421 275.476 95.6695C275.595 95.0787 276.067 94.6652 276.894 94.4289C278.194 92.7747 279.139 91.5932 279.73 90.8843C280.321 90.0572 280.852 89.171 281.325 88.2258C282.507 87.1624 283.452 86.2762 284.161 85.5673C284.633 85.0947 284.929 84.7993 285.047 84.6812C285.283 84.563 285.52 84.3858 285.756 84.1495C286.701 83.3224 287.351 82.7907 287.705 82.5544C288.178 82.1999 288.533 81.8455 288.769 81.491C291.132 81.6091 292.845 81.9636 293.909 82.5544C294.972 83.027 295.74 83.9722 296.213 85.3901C296.094 85.8627 295.917 86.2172 295.681 86.4535C295.445 86.5716 295.385 86.9261 295.504 87.5169C294.677 88.3439 294.263 89.2301 294.263 90.1753C293.081 91.2387 292.432 91.8886 292.313 92.1249C292.313 92.243 292.313 92.4203 292.313 92.6566C292.432 92.7747 292.609 92.952 292.845 93.1883C293.2 93.3064 293.495 93.5427 293.731 93.8972C293.849 94.488 294.145 95.0787 294.617 95.6695C295.09 96.1421 295.385 96.7329 295.504 97.4418C295.976 97.56 296.39 97.7372 296.744 97.9735C297.099 98.2098 297.512 98.4461 297.985 98.6824C298.457 99.2732 298.871 99.6277 299.225 99.7458C299.58 99.7458 299.757 99.9231 299.757 100.278C300.821 100.868 301.589 101.282 302.061 101.518C302.534 101.636 302.888 101.873 303.125 102.227C304.188 101.991 305.015 102.168 305.606 102.759C305.724 102.759 306.078 102.818 306.669 102.936C307.378 102.936 308.087 102.995 308.796 103.113C309.623 103.113 310.391 103.172 311.1 103.29C311.927 103.29 312.459 103.29 312.695 103.29C313.168 103.29 313.699 103.172 314.29 102.936C314.999 102.582 315.472 102.522 315.708 102.759C316.181 102.877 316.89 102.877 317.835 102.759C318.78 102.522 319.43 102.286 319.784 102.05C321.438 102.05 322.384 101.991 322.62 101.873C322.974 101.754 323.565 101.636 324.392 101.518C325.81 101.046 326.815 100.514 327.405 99.9231C328.114 99.3323 328.764 98.9187 329.355 98.6824C329.591 98.4461 329.827 98.2098 330.064 97.9735C330.3 97.7372 330.536 97.4418 330.773 97.0874C331.482 97.2055 331.954 97.0283 332.191 96.5557C332.545 96.083 333.018 95.7877 333.608 95.6695C333.727 95.0787 333.845 94.547 333.963 94.0744C334.199 93.4836 334.554 93.0701 335.026 92.8338C334.908 92.0067 335.026 91.2978 335.381 90.707C335.853 89.9981 336.09 89.2892 336.09 88.5802C336.09 87.9895 335.971 87.4578 335.735 86.9852C335.499 86.3944 335.263 85.8036 335.026 85.2129C334.554 84.3858 334.14 83.9132 333.786 83.795C333.431 83.5587 333.313 83.2042 333.431 82.7316C332.486 81.9045 331.895 81.4319 331.659 81.3138C331.541 81.1956 331.423 81.0184 331.304 80.7821C330.714 80.7821 330.3 80.7821 330.064 80.7821C329.827 80.6639 329.65 80.6048 329.532 80.6048C329.414 80.4867 329.296 80.3685 329.178 80.2504C329.059 80.1322 328.823 79.955 328.469 79.7187C327.169 79.4824 326.46 79.3051 326.342 79.187C326.342 79.0688 326.224 78.9507 325.987 78.8325C325.751 78.7144 325.456 78.7144 325.101 78.8325C324.747 78.8325 324.392 78.7734 324.038 78.6553C321.911 77.9464 320.257 77.5919 319.075 77.5919C317.894 77.4737 316.712 77.2965 315.531 77.0602C314.586 76.8239 313.64 76.5285 312.695 76.1741C311.75 75.7014 310.805 75.347 309.859 75.1107C309.505 74.9925 309.15 74.9925 308.796 75.1107C308.56 75.1107 308.264 75.0516 307.91 74.9334C306.965 74.6971 306.019 74.4608 305.074 74.2245C304.129 73.87 303.184 73.811 302.238 74.0473C301.411 73.811 300.702 73.5156 300.112 73.1611C299.521 72.8067 298.753 72.5703 297.808 72.4522C297.689 71.9796 297.394 71.7433 296.921 71.7433C296.449 71.6251 296.213 71.2706 296.213 70.6799C295.504 70.5617 294.854 70.3845 294.263 70.1482C293.79 69.7937 293.259 69.4983 292.668 69.262C292.077 68.3168 291.014 67.6079 289.478 67.1353C289.005 66.6626 288.592 66.19 288.237 65.7174C288.001 65.2448 287.705 64.7131 287.351 64.1223C286.878 63.0589 286.347 62.4091 285.756 62.1728C285.874 61.2275 285.52 60.3414 284.693 59.5143C283.984 58.5691 283.57 57.6238 283.452 56.6786C283.334 56.206 283.334 55.7924 283.452 55.438C283.57 55.0835 283.629 54.7291 283.629 54.3746C283.275 53.0749 283.097 52.2478 283.097 51.8934C283.216 51.4207 283.097 51.0663 282.743 50.83C282.979 50.3573 283.038 49.8847 282.92 49.4121C282.802 48.9395 282.861 48.4078 283.097 47.817C283.216 46.5173 283.275 45.513 283.275 44.8041C283.393 44.0952 283.747 43.6226 284.338 43.3862C284.574 43.0318 284.633 42.6773 284.515 42.3229C284.515 41.9684 284.574 41.6139 284.693 41.2595C285.283 40.3142 285.815 39.7235 286.288 39.4872C286.76 39.1327 286.997 38.601 286.997 37.8921C287.942 36.9468 288.473 36.5333 288.592 36.6515C288.71 36.6515 288.887 36.5333 289.123 36.297C289.832 35.4699 290.423 34.9382 290.896 34.7019C291.486 34.3474 291.782 33.7567 291.782 32.9296C292.373 33.1659 293.081 32.8705 293.909 32.0434C294.736 31.2164 295.445 30.6847 296.035 30.4484C296.981 29.8576 297.512 29.444 297.63 29.2077C298.576 29.0896 299.521 28.9124 300.466 28.676C301.529 28.4397 302.475 28.0262 303.302 27.4354C303.656 27.7899 304.07 27.849 304.542 27.6127C305.133 27.3763 305.547 27.0219 305.783 26.5493C307.083 26.6674 308.146 26.2539 308.973 25.3086C309.564 25.4268 310.155 25.4268 310.746 25.3086C311.454 25.1905 312.104 25.1905 312.695 25.3086C314.822 25.7813 316.535 25.8994 317.835 25.6631C319.253 25.3086 320.434 25.545 321.379 26.372C322.679 26.1357 323.92 26.313 325.101 26.9037C326.401 27.4945 327.701 27.6717 329 27.4354C329.119 28.1443 329.709 28.4988 330.773 28.4988C331.009 29.2077 331.718 29.6804 332.899 29.9167C333.018 30.2711 333.195 30.5665 333.431 30.8028C333.667 30.921 333.904 31.1573 334.14 31.5117C335.912 31.5117 337.33 32.2797 338.394 33.8158C338.984 33.5794 339.634 33.0478 340.343 32.2207C341.17 31.3936 341.702 30.6847 341.938 30.0939C342.411 30.0939 342.765 30.0348 343.002 29.9167C343.356 29.7985 343.711 29.6213 344.065 29.385C345.128 29.2668 346.133 29.3259 347.078 29.5622C348.141 29.7985 349.146 30.0939 350.091 30.4484C350.918 31.3936 351.509 32.5751 351.863 33.993Z" fill="#0B284A"/>
<path d="M222.484 103.999C222.366 104.354 222.189 104.708 221.952 105.063C221.834 105.299 221.716 105.594 221.598 105.949C219.826 107.012 218.88 107.839 218.762 108.43C218.644 108.903 217.876 109.316 216.458 109.671C215.868 109.671 215.277 109.789 214.686 110.025C214.213 110.143 213.859 110.321 213.623 110.557C213.386 110.439 212.973 110.38 212.382 110.38C211.791 110.38 211.141 110.439 210.432 110.557C209.723 110.557 209.074 110.616 208.483 110.734C207.892 110.734 207.538 110.616 207.419 110.38C206.356 110.734 205.824 110.852 205.824 110.734C205.824 110.616 205.411 110.498 204.584 110.38C203.166 110.616 202.162 110.675 201.571 110.557C201.098 110.439 200.567 110.38 199.976 110.38C199.739 110.38 199.444 110.498 199.09 110.734C198.735 110.852 198.44 110.911 198.203 110.911C196.431 110.911 194.954 111.089 193.773 111.443C192.709 111.798 191.705 111.62 190.76 110.911C189.224 110.675 188.279 110.38 187.924 110.025C187.57 109.553 187.215 109.08 186.861 108.607C186.861 108.017 186.92 107.485 187.038 107.012C187.156 106.54 187.156 106.008 187.038 105.417C187.629 104.945 188.042 104.354 188.279 103.645C188.515 102.818 188.692 102.05 188.81 101.341C190.11 101.223 191.469 101.164 192.887 101.164C194.304 101.164 195.545 100.809 196.608 100.1H198.735C199.208 99.2732 199.444 98.6824 199.444 98.3279C199.562 97.8553 199.621 97.3827 199.621 96.9101C199.621 96.5556 199.562 96.2602 199.444 96.0239C199.326 95.6695 199.208 95.315 199.09 94.9605C199.09 94.3698 199.09 93.8381 199.09 93.3654C199.208 92.8928 199.208 92.3611 199.09 91.7704C199.09 91.1796 198.912 90.1162 198.558 88.5802C198.322 86.926 198.263 85.8627 198.381 85.39C198.735 84.0903 198.853 83.086 198.735 82.3771C198.617 81.6682 198.558 81.0183 198.558 80.4276C198.558 79.8368 198.617 79.3051 198.735 78.8325C198.853 78.2417 198.912 77.6509 198.912 77.0602C198.912 76.8239 198.853 76.5875 198.735 76.3512C198.617 75.9968 198.558 75.6423 198.558 75.2878C198.44 74.6971 198.44 74.1654 198.558 73.6928C198.676 73.102 198.676 72.5112 198.558 71.9205C198.44 71.3297 198.263 70.8571 198.026 70.5026C197.79 70.03 197.613 69.5574 197.495 69.0848C197.376 67.9032 197.199 67.1352 196.963 66.7807C196.845 66.4263 196.727 66.0718 196.608 65.7174C196.372 64.7721 196.195 63.945 196.077 63.2361C196.077 62.409 195.663 61.7001 194.836 61.1093L192.887 57.2103C192.65 56.8558 192.473 56.4422 192.355 55.9696C192.237 55.497 192.059 55.0244 191.823 54.5518C191.351 53.961 190.76 53.4884 190.051 53.1339C189.46 52.6613 188.869 52.2478 188.279 51.8933C188.042 51.657 187.57 51.5979 186.861 51.7161C186.152 51.7161 185.62 51.657 185.266 51.5388C184.084 51.3025 182.902 51.0662 181.721 50.8299C180.658 50.5936 179.535 50.9481 178.354 51.8933C177.763 51.8933 177.172 51.8933 176.581 51.8933C176.109 51.7752 175.636 51.9524 175.163 52.425C173.864 53.0158 173.037 53.3702 172.682 53.4884C172.328 53.4884 171.914 53.6656 171.442 54.0201C169.551 54.6109 168.074 55.1426 167.011 55.6152C165.947 55.9696 165.002 56.5013 164.175 57.2103C162.993 57.3284 161.871 57.9192 160.808 58.9826C160.689 59.1007 160.394 59.2189 159.921 59.337C159.567 59.337 159.272 59.337 159.035 59.337C157.381 60.1641 156.259 60.873 155.668 61.4638C154.132 62.1727 153.069 62.8226 152.478 63.4133C152.005 64.0041 151.473 64.3586 150.883 64.4767C150.41 65.1857 149.937 65.5401 149.465 65.5401C149.229 66.0127 148.874 66.4263 148.401 66.7807C147.929 67.0171 147.574 67.3715 147.338 67.8441C147.338 68.5531 147.515 69.262 147.87 69.9709C147.988 71.1525 148.106 71.8614 148.224 72.0977C148.342 72.2158 148.401 72.3931 148.401 72.6294C148.401 73.5746 148.224 74.8743 147.87 76.5285C147.633 78.1826 147.633 79.3051 147.87 79.8959C147.87 80.2503 147.811 80.6639 147.693 81.1365C147.693 81.4909 147.929 81.7863 148.401 82.0226C148.165 83.086 148.047 84.3266 148.047 85.7445C148.047 87.0442 148.401 88.1076 149.11 88.9347C148.874 89.8799 148.815 90.4116 148.933 90.5297C149.051 90.6479 149.051 91.0614 148.933 91.7704C149.406 92.8338 149.701 93.4836 149.819 93.7199C149.937 93.9562 150.056 94.1925 150.174 94.4288C150.883 94.547 151.533 94.3698 152.123 93.8971C152.714 93.8971 153.187 93.8381 153.541 93.7199C154.014 93.4836 154.545 93.3064 155.136 93.1882C155.727 93.0701 156.318 93.1291 156.909 93.3654C157.499 93.4836 158.09 93.4245 158.681 93.1882C159.272 93.4245 159.685 93.7199 159.921 94.0744C160.276 94.4288 160.808 94.547 161.517 94.4288C162.107 95.4922 162.757 96.1421 163.466 96.3784C163.584 96.9691 163.821 97.3827 164.175 97.619C164.648 97.8553 164.884 98.2688 164.884 98.8596C165.002 99.3322 164.884 99.6276 164.529 99.7458C164.175 99.7458 164.116 100.041 164.352 100.632C163.761 100.632 163.348 100.868 163.112 101.341C162.875 101.813 162.462 102.109 161.871 102.227C161.635 102.818 161.221 103.172 160.63 103.29C160.04 103.29 159.685 103.586 159.567 104.177C158.976 104.058 158.504 104.177 158.149 104.531C157.913 104.767 157.499 105.004 156.909 105.24C156.909 105.24 156.613 105.24 156.022 105.24C155.55 105.24 155.018 105.24 154.427 105.24C153.837 105.24 153.305 105.299 152.832 105.417C152.36 105.417 152.064 105.417 151.946 105.417C151.71 105.417 151.414 105.535 151.06 105.772C150.824 105.89 150.528 105.949 150.174 105.949C149.11 106.185 148.047 106.303 146.984 106.303C145.92 106.185 144.857 106.244 143.793 106.481C143.203 106.599 142.435 106.776 141.489 107.012C140.78 107.249 140.072 107.367 139.363 107.367C138.654 107.249 138.004 107.308 137.413 107.544C136.232 107.898 135.641 108.076 135.641 108.076C135.641 107.957 135.523 107.898 135.286 107.898C134.105 108.253 133.396 108.371 133.16 108.253C132.923 108.135 132.687 108.076 132.451 108.076C131.86 108.076 131.21 108.135 130.501 108.253C129.792 108.253 129.142 108.253 128.552 108.253C127.488 108.017 126.484 107.839 125.539 107.721C124.712 107.485 124.239 107.426 124.121 107.544C124.003 107.071 123.825 106.717 123.589 106.481C123.353 106.126 123.116 105.772 122.88 105.417C123.116 104.945 123.471 104.354 123.944 103.645C124.18 102.227 124.416 101.105 124.652 100.277C125.007 99.3322 125.42 98.7415 125.893 98.5052C126.366 98.2688 127.075 98.1507 128.02 98.1507C128.965 98.0325 129.733 97.9144 130.324 97.7962C131.269 97.4418 131.801 97.3236 131.919 97.4418C132.155 97.4418 132.392 97.4418 132.628 97.4418C132.982 97.3236 133.337 97.2055 133.691 97.0873C134.164 96.9691 134.577 96.851 134.932 96.7328C135.286 96.6147 135.877 96.5556 136.704 96.5556C137.531 96.5556 138.063 96.4375 138.299 96.2011C138.654 95.7285 138.713 95.1378 138.476 94.4288C138.24 93.6018 138.24 93.011 138.476 92.6565C138.24 90.6479 138.004 89.1119 137.768 88.0485C137.649 86.9851 137.59 85.9217 137.59 84.8583C137.59 84.5039 137.649 84.1494 137.768 83.795C137.886 83.4405 137.886 83.086 137.768 82.7316C137.768 82.4953 137.708 82.2589 137.59 82.0226C137.472 81.6682 137.413 81.3137 137.413 80.9593C137.413 80.7229 137.413 79.9549 137.413 78.6552C137.531 77.2374 137.59 76.3512 137.59 75.9968C137.708 75.6423 137.827 75.2878 137.945 74.9334C138.063 74.5789 138.122 74.2245 138.122 73.87C137.768 72.6885 137.59 72.0977 137.59 72.0977C137.708 72.0977 137.768 71.9795 137.768 71.7432C137.886 70.798 137.827 69.7937 137.59 68.7303C137.354 67.6669 137.177 66.6626 137.059 65.7174C136.94 65.2447 136.881 64.8312 136.881 64.4767C137 64.0041 137.059 63.5906 137.059 63.2361C136.704 61.582 136.586 60.5186 136.704 60.046C136.94 59.4552 137.059 58.8644 137.059 58.2736C136.94 56.9739 136.881 56.3241 136.881 56.3241C137 56.3241 137.059 56.2059 137.059 55.9696C137.059 53.8429 136.94 52.3069 136.704 51.3616C136.586 50.2982 136.468 49.2939 136.35 48.3487C136.35 47.1671 136.35 46.0447 136.35 44.9813C136.468 43.7997 136.527 42.6773 136.527 41.6139C136.409 40.5505 136.409 39.8416 136.527 39.4871C136.763 39.0145 136.881 38.4828 136.881 37.892C136.054 37.892 135.227 37.9511 134.4 38.0693C133.573 38.1874 132.746 38.2465 131.919 38.2465C131.564 38.1283 131.21 38.0102 130.856 37.892C130.501 37.7739 130.088 37.7148 129.615 37.7148C129.142 37.7148 128.729 37.7739 128.374 37.892C128.02 38.0102 127.606 37.9511 127.134 37.7148C126.543 37.4785 125.952 37.1831 125.361 36.8286C124.889 36.356 124.357 36.1197 123.766 36.1197C123.884 35.4108 123.944 34.6428 123.944 33.8157C123.944 32.8705 124.121 32.1025 124.475 31.5117C124.712 31.0391 124.948 30.7437 125.184 30.6255C125.539 30.3892 125.834 30.0939 126.07 29.7394C126.779 28.5578 127.193 27.8489 127.311 27.6126C127.429 27.7308 127.961 27.7308 128.906 27.6126C129.851 27.4945 130.856 27.3763 131.919 27.2582C133.1 27.0218 134.164 26.8446 135.109 26.7265C136.172 26.6083 136.881 26.5492 137.236 26.5492C137.59 26.5492 137.886 26.6083 138.122 26.7265C138.476 26.8446 138.831 26.9628 139.185 27.0809C139.304 27.0809 139.717 27.0809 140.426 27.0809C141.253 26.9628 142.021 26.9037 142.73 26.9037C143.557 26.7855 144.325 26.7265 145.034 26.7265C145.743 26.6083 146.157 26.4901 146.275 26.372C147.22 26.0175 147.988 25.9585 148.579 26.1948C149.288 26.4311 149.937 26.4311 150.528 26.1948C151.119 26.4311 151.533 26.7265 151.769 27.0809C152.123 27.3172 152.655 27.3763 153.364 27.2582C153.6 27.9671 153.955 28.676 154.427 29.3849C155.018 30.0939 155.432 30.8028 155.668 31.5117C154.959 32.8114 154.486 33.7566 154.25 34.3474C154.132 34.9382 153.718 35.2336 153.009 35.2336C152.773 35.4699 152.596 35.7062 152.478 35.9425C152.36 36.1788 152.182 36.4151 151.946 36.6514C151.237 36.7696 150.587 37.065 149.997 37.5376C149.406 37.4194 148.638 37.3603 147.693 37.3603C146.865 37.3603 146.275 37.6557 145.92 38.2465C146.038 39.5462 145.979 40.3142 145.743 40.5505C145.625 40.6687 145.566 40.8459 145.566 41.0822C145.566 41.673 145.625 42.2637 145.743 42.8545C145.979 43.3271 146.097 43.8588 146.097 44.4496C145.979 45.3948 145.979 46.0447 146.097 46.3991C146.216 46.6354 146.275 46.9308 146.275 47.2853C146.157 47.5216 146.097 47.9942 146.097 48.7031C146.097 49.2939 146.097 50.0028 146.097 50.8299C146.216 51.657 146.275 52.4841 146.275 53.3112C146.393 54.0201 146.452 54.4927 146.452 54.729C147.043 54.8472 147.693 54.6109 148.401 54.0201C149.229 53.3112 149.819 52.7795 150.174 52.425C151.001 51.5979 151.473 51.2435 151.592 51.3616C151.71 51.3616 151.887 51.3025 152.123 51.1844C153.423 50.9481 154.309 50.5936 154.782 50.121C155.254 49.5302 155.963 49.2348 156.909 49.2348C157.145 48.9985 157.44 48.8213 157.795 48.7031C158.149 48.4668 158.445 48.1715 158.681 47.817C159.626 47.5807 160.276 47.3444 160.63 47.1081C160.985 46.7536 161.457 46.5173 162.048 46.3991C162.285 45.9265 162.639 45.6311 163.112 45.513C163.584 45.3948 164.057 45.2767 164.529 45.1585C165.357 44.5677 166.066 44.0951 166.656 43.7407C167.365 43.3862 168.192 43.209 169.138 43.209C170.319 42.7364 171.323 42.441 172.15 42.3228C172.978 42.0865 173.45 41.8502 173.568 41.6139C174.159 41.8502 174.632 41.8502 174.986 41.6139C175.459 41.2594 175.99 40.964 176.581 40.7277C176.936 40.4914 177.349 40.4323 177.822 40.5505C178.294 40.5505 178.649 40.3733 178.885 40.0188C179.476 40.2551 179.949 40.3142 180.303 40.196C180.658 39.9597 181.13 39.8416 181.721 39.8416C182.194 39.8416 182.607 39.9597 182.962 40.196C183.434 40.3142 183.966 40.3142 184.557 40.196C185.029 40.196 185.443 40.137 185.797 40.0188C186.152 39.7825 186.565 39.7825 187.038 40.0188C188.338 40.2551 189.106 40.4914 189.342 40.7277C189.696 40.964 189.992 41.0822 190.228 41.0822C191.291 41.2004 192.296 41.4957 193.241 41.9684C194.304 42.3228 195.309 42.441 196.254 42.3228C197.199 43.3862 198.144 44.4496 199.09 45.513C200.035 46.4582 200.567 46.9308 200.685 46.9308C200.803 48.1124 201.394 49.1167 202.457 49.9438C202.457 50.889 202.811 51.5979 203.52 52.0705C203.52 52.8976 203.639 53.4884 203.875 53.8429C204.229 54.1973 204.643 54.6699 205.115 55.2607C204.997 55.7333 205.234 56.6195 205.824 57.9192C206.533 59.1007 207.065 59.9278 207.419 60.4004C207.301 60.5186 207.301 60.9321 207.419 61.641C207.538 62.2318 207.656 62.8817 207.774 63.5906C208.01 64.2995 208.187 64.9494 208.306 65.5401C208.542 66.1309 208.719 66.4854 208.837 66.6035C208.601 67.0761 208.601 67.5487 208.837 68.0214C209.074 68.3758 209.192 68.7894 209.192 69.262C209.074 70.5617 209.074 71.5069 209.192 72.0977C209.31 72.6885 209.428 73.2792 209.546 73.87C209.546 74.5789 209.546 76.1149 209.546 78.478C209.546 80.7229 209.605 83.1451 209.723 85.7445C209.842 88.3439 210.019 90.7661 210.255 93.011C210.492 95.1378 210.787 96.4375 211.141 96.9101C210.905 98.0916 210.964 98.8596 211.319 99.2141C211.555 99.3322 212.028 99.2732 212.736 99.0368C213.564 98.8005 213.918 98.8005 213.8 99.0368C215.1 98.8005 215.808 98.6233 215.927 98.5052C216.163 98.387 216.458 98.387 216.813 98.5052C217.64 98.7415 218.112 98.8596 218.231 98.8596C218.349 98.7415 218.526 98.7415 218.762 98.8596C219.235 99.0959 219.589 99.3913 219.826 99.7458C220.18 100.1 220.653 100.277 221.244 100.277C221.007 101.105 221.244 101.873 221.952 102.581C222.661 103.172 222.78 103.527 222.307 103.645L222.484 103.999Z" fill="#0B284A"/>
<path d="M115.791 85.9218C115.554 86.5126 115.495 87.1624 115.613 87.8713C115.731 88.4621 115.731 89.0529 115.613 89.6437C115.377 90.2344 115.023 90.7661 114.55 91.2387C114.195 91.5932 114.136 92.1249 114.373 92.8338C114.136 93.0701 113.782 93.4246 113.309 93.8972C112.837 94.3698 112.364 94.9015 111.891 95.4923C111.419 95.9649 111.005 96.4375 110.651 96.9101C110.296 97.3828 110.119 97.6781 110.119 97.7963C109.292 98.0326 108.583 98.4461 107.992 99.0369C107.402 99.5095 106.811 100.041 106.22 100.632C105.984 100.75 105.688 100.868 105.334 100.986C104.979 100.986 104.743 101.164 104.625 101.518C104.034 101.518 103.562 101.695 103.207 102.05C102.971 102.404 102.616 102.7 102.144 102.936C101.671 103.172 101.258 103.35 100.903 103.468C100.549 103.586 100.135 103.822 99.6625 104.177C99.0717 104.058 98.3037 104.118 97.3585 104.354C96.2951 104.826 95.4089 105.299 94.7 105.772C94.1092 105.535 93.6957 105.535 93.4594 105.772C93.2231 105.89 92.8686 106.067 92.396 106.303C91.4507 106.303 90.86 106.362 90.6237 106.481C90.5055 106.599 90.3283 106.717 90.092 106.835C89.0286 107.308 88.3197 107.485 87.9652 107.367C87.6107 107.249 87.3744 107.426 87.2563 107.898C86.311 107.898 85.4249 107.958 84.5978 108.076C83.8889 108.076 83.0618 108.017 82.1166 107.898C81.0532 107.78 80.4033 107.78 80.167 107.898C79.9307 108.017 79.6944 108.076 79.4581 108.076C79.2218 108.076 78.7492 108.135 78.0402 108.253C77.3313 108.253 76.5042 108.253 75.559 108.253C74.7319 108.253 73.9639 108.253 73.255 108.253C72.5461 108.135 72.1325 108.076 72.0144 108.076C70.5965 107.485 69.6513 107.19 69.1787 107.19C68.7061 107.071 68.1744 106.894 67.5836 106.658C67.2291 106.54 66.6974 106.303 65.9885 105.949C65.3977 105.594 64.7479 105.24 64.039 104.886C63.33 104.531 62.6211 104.236 61.9122 103.999C61.3214 103.645 60.9079 103.35 60.6716 103.113C59.2537 102.404 58.3676 101.754 58.0131 101.164C57.6586 100.573 57.0679 100.218 56.2408 100.1C56.3589 99.864 56.1226 99.5095 55.5319 99.0369C55.0592 98.4461 54.7638 98.2098 54.6457 98.328C54.6457 97.7372 54.1731 96.792 53.2278 95.4923C52.4008 94.0744 51.7509 93.1883 51.2783 92.8338C51.1601 91.8886 50.8648 91.1797 50.3921 90.707C50.0377 90.1163 49.5651 89.5255 48.9743 88.9347C48.8561 87.8713 48.5608 86.867 48.0881 85.9218C47.6155 84.8584 47.3792 83.7359 47.3792 82.5544C47.2611 82.0818 47.0838 81.7864 46.8475 81.6682C46.7294 81.5501 46.6112 81.3138 46.4931 80.9593C46.1386 79.0688 45.9614 78.1236 45.9614 78.1236C45.8432 76.9421 45.725 76.3513 45.6069 76.3513C45.4887 76.2331 45.4297 76.115 45.4297 75.9968C45.3115 75.6424 45.2524 75.2288 45.2524 74.7562C45.2524 74.1654 45.2524 73.7519 45.2524 73.5156C45.4887 72.4522 45.5478 71.8024 45.4297 71.5661C45.4297 71.3297 45.4297 71.0934 45.4297 70.8571C45.5478 69.5574 45.4887 68.6122 45.2524 68.0214C45.0161 67.4307 45.1343 66.7808 45.6069 66.0719C45.3706 65.0085 45.3115 64.4177 45.4297 64.2996C45.5478 64.0633 45.6069 63.8269 45.6069 63.5906C45.6069 62.4091 45.666 61.6411 45.7841 61.2866C46.0204 60.9322 46.2567 60.5777 46.4931 60.2232C46.6112 59.8688 46.7884 59.3371 47.0247 58.6282C47.2611 57.8011 47.4383 57.2103 47.5564 56.8558C47.7927 55.7925 47.97 54.67 48.0881 53.4884C48.3244 52.1888 48.6198 51.0072 48.9743 49.9438C49.5651 48.4078 49.9195 47.5217 50.0377 47.2854C50.6285 46.3401 51.1011 45.513 51.4555 44.8041C51.9281 43.977 52.4598 43.2681 53.0506 42.6773C53.2869 42.3229 53.5232 42.0275 53.7595 41.7912C54.114 41.5549 54.4094 41.2595 54.6457 40.905C55.1183 40.3143 55.4728 39.7826 55.7091 39.3099C56.0635 38.8373 56.5952 38.4829 57.3042 38.2466C57.6586 37.6558 57.8949 37.2422 58.0131 37.0059C58.1312 36.6515 58.5448 36.3561 59.2537 36.1198C60.0808 35.529 60.6716 34.8792 61.026 34.1702C61.4986 33.4613 62.3257 32.9887 63.5073 32.7524C63.9799 32.1616 64.3934 31.689 64.7479 31.3345C65.2205 30.8619 65.8703 30.5665 66.6974 30.4484C68.1153 29.7394 68.9424 29.1487 69.1787 28.6761C69.415 28.2034 69.8285 27.7308 70.4193 27.2582C71.0101 27.2582 71.4827 27.1401 71.8371 26.9037C72.1916 26.6674 72.6051 26.4902 73.0778 26.3721C74.7319 26.1357 76.5042 26.0767 78.3947 26.1948C80.4033 26.1948 82.2347 26.1948 83.8889 26.1948C85.543 26.5493 86.5473 26.6674 86.9018 26.5493C87.3744 26.313 87.9061 26.313 88.4969 26.5493C89.0877 26.7856 89.6194 27.0219 90.092 27.2582C90.5646 27.4945 91.0963 27.7308 91.6871 27.9671C92.6323 27.9671 93.3412 28.1444 93.8138 28.4988C94.4046 28.7351 95.2317 28.7351 96.2951 28.4988C97.1221 29.0896 97.5357 29.4441 97.5357 29.5622C97.6538 29.6804 97.8311 29.7985 98.0674 29.9167C99.6034 30.3893 100.844 30.9801 101.789 31.689C102.734 32.2798 103.384 32.7524 103.739 33.1068C103.975 34.0521 104.211 34.6428 104.448 34.8792C104.684 35.1155 104.979 35.2927 105.334 35.4109C105.57 35.7653 105.688 36.1789 105.688 36.6515C105.688 37.1241 105.984 37.4195 106.574 37.5376C106.456 38.2466 106.515 38.7782 106.752 39.1327C107.106 39.4872 107.402 39.9598 107.638 40.5506C108.229 41.3776 108.642 42.0275 108.878 42.5001C109.115 42.8546 109.233 43.3272 109.233 43.918C109.233 44.1543 109.351 44.4497 109.587 44.8041C109.942 45.0404 110.178 45.2767 110.296 45.513C110.651 46.5764 110.769 47.1672 110.651 47.2854C110.533 47.4035 110.533 47.5807 110.651 47.817C110.887 48.2897 111.123 48.7032 111.36 49.0577C111.596 49.294 111.773 49.5894 111.891 49.9438C112.128 50.5346 112.187 51.1254 112.069 51.7161C112.069 52.3069 112.187 52.8977 112.423 53.4884C112.659 54.3155 112.896 55.2017 113.132 56.1469C113.368 57.0922 113.664 57.9192 114.018 58.6282C114.018 59.8097 114.077 60.4596 114.195 60.5777C114.314 60.5777 114.373 60.6959 114.373 60.9322C114.255 61.0503 114.077 61.4048 113.841 61.9956C113.723 62.4682 113.605 62.7045 113.487 62.7045C113.959 63.6497 114.018 64.4177 113.664 65.0085L112.246 66.6036C111.773 66.7217 111.123 67.0762 110.296 67.667C109.587 68.1396 109.174 68.6122 109.056 69.0848C108.11 69.203 107.461 69.203 107.106 69.0848C106.87 68.9667 106.574 68.9667 106.22 69.0848C105.157 69.5574 104.389 69.7937 103.916 69.7937C103.443 69.7937 102.912 69.9119 102.321 70.1482C101.966 69.9119 101.553 69.7937 101.08 69.7937C100.608 69.7937 100.194 69.7347 99.8397 69.6165C98.7763 69.6165 98.1855 69.5574 98.0674 69.4393C97.9492 69.3211 97.772 69.262 97.5357 69.262C96.9449 69.262 96.3541 69.3211 95.7634 69.4393C95.2908 69.4393 94.7591 69.4393 94.1683 69.4393C93.8138 69.4393 93.4594 69.4393 93.1049 69.4393C92.8686 69.3211 92.5732 69.262 92.2187 69.262C91.3917 69.3802 90.8009 69.3802 90.4464 69.262C90.092 69.1439 89.7375 69.0848 89.383 69.0848C88.6741 69.0848 87.9652 69.1439 87.2563 69.262C86.6655 69.3802 86.0157 69.4393 85.3067 69.4393C83.5344 69.4393 81.7621 69.203 79.9898 68.7303C78.2175 68.1396 76.5042 67.9033 74.8501 68.0214C74.6138 68.0214 74.3184 68.0805 73.9639 68.1987C73.6095 68.1987 73.3141 68.1987 73.0778 68.1987C72.0144 67.8442 71.3645 67.726 71.1282 67.8442C70.8919 67.9623 70.6556 68.0214 70.4193 68.0214C69.8285 68.0214 69.2377 67.9623 68.647 67.8442C68.0562 67.6079 67.4654 67.5488 66.8747 67.667C66.5202 67.667 66.2248 67.726 65.9885 67.8442C65.7522 67.8442 65.4568 67.9033 65.1023 68.0214C64.5116 68.1396 63.9208 68.1396 63.33 68.0214C62.8574 67.9033 62.3257 67.8442 61.735 67.8442C60.7897 67.8442 59.8445 67.9623 58.8992 68.1987C58.0722 68.3168 57.186 68.3168 56.2408 68.1987C56.0045 68.5531 55.9454 68.9667 56.0635 69.4393C56.1817 69.9119 56.2408 70.3254 56.2408 70.6799C56.2408 72.0977 56.2999 72.9839 56.418 73.3384C56.5362 73.6928 56.6543 74.1064 56.7725 74.579C56.8906 74.8153 56.8906 75.1698 56.7725 75.6424C56.7725 75.9968 56.8315 76.2922 56.9497 76.5285C57.0679 76.883 57.186 77.2375 57.3042 77.5919C57.4223 77.8282 57.5405 78.0645 57.6586 78.3008C57.6586 79.4824 57.7768 80.5458 58.0131 81.491C58.3676 82.3181 58.722 83.2042 59.0765 84.1495C59.4309 85.0947 59.7854 85.9809 60.1399 86.808C60.4943 87.635 60.7897 88.1076 61.026 88.2258C61.2623 88.8166 61.3805 89.4073 61.3805 89.9981C61.3805 90.4707 61.735 90.8843 62.4439 91.2387C63.0346 91.7114 63.3891 92.1249 63.5073 92.4794C63.6254 92.7157 63.8026 92.952 64.039 93.1883C64.5116 93.8972 64.807 94.2517 64.9251 94.2517C65.1614 94.1335 65.3977 94.4289 65.634 95.1378C67.0519 95.4923 67.879 95.9649 68.1153 96.5557C68.4697 96.9101 68.7061 97.1464 68.8242 97.2646C69.0605 97.2646 69.2968 97.3828 69.5331 97.6191C70.8328 97.3828 71.6599 97.4418 72.0144 97.7963C72.3688 98.1508 73.0187 98.4461 73.9639 98.6825C74.4365 98.8006 75.3227 98.8597 76.6224 98.8597C77.9221 98.8597 79.2809 98.8597 80.6987 98.8597C82.1166 98.7415 83.4753 98.6234 84.775 98.5052C86.0747 98.2689 86.9609 98.0917 87.4335 97.9735C89.4421 97.2646 91.0372 96.8511 92.2187 96.7329C93.4003 96.4966 94.5228 96.0831 95.5861 95.4923C96.6495 94.9015 97.3585 94.6061 97.7129 94.6061C98.1855 94.6061 98.6582 94.488 99.1308 94.2517C99.3671 94.0154 99.4852 93.8381 99.4852 93.72C99.6034 93.6018 100.076 93.4837 100.903 93.3655C101.021 93.2474 101.317 92.8929 101.789 92.3021C102.262 91.7114 102.734 91.1206 103.207 90.5298C103.798 89.8209 104.27 89.171 104.625 88.5803C105.098 87.9895 105.393 87.576 105.511 87.3396C105.866 86.9852 106.22 86.6898 106.574 86.4535C107.047 86.099 107.283 85.6264 107.283 85.0356C108.229 84.7993 108.878 84.2086 109.233 83.2633C109.824 83.2633 110.355 83.1452 110.828 82.9089C111.301 82.6726 111.832 82.4362 112.423 82.1999C112.896 82.3181 113.25 82.5544 113.487 82.9089C113.723 83.1452 114.077 83.3815 114.55 83.6178C114.786 83.9722 114.963 84.3267 115.082 84.6812C115.318 85.0356 115.554 85.4492 115.791 85.9218ZM104.448 58.8054C104.566 57.9783 104.448 57.2694 104.093 56.6786C103.739 55.9697 103.502 55.2017 103.384 54.3746C102.912 53.1931 102.498 52.0706 102.144 51.0072C101.789 49.8257 101.494 48.9986 101.258 48.526C101.021 48.0534 100.726 47.6989 100.371 47.4626C100.017 47.2263 99.8988 46.8127 100.017 46.222C99.7806 46.222 99.308 45.6312 98.5991 44.4497C97.8902 43.2681 97.4766 42.5592 97.3585 42.3229C96.7677 41.3776 96.1769 40.7869 95.5861 40.5506C95.3498 40.3143 95.1726 40.0189 95.0544 39.6644C95.0544 39.3099 94.8181 39.0736 94.3455 38.9555C93.5184 38.601 92.7504 38.3056 92.0415 38.0693C91.3326 37.833 90.86 37.5376 90.6237 37.1832C90.151 37.1832 89.7375 37.1241 89.383 37.0059C89.1467 36.8878 88.8514 36.8878 88.4969 37.0059C86.7246 36.0607 85.4249 35.5881 84.5978 35.5881C83.8889 35.5881 83.1209 35.7062 82.2938 35.9425C82.0575 35.5881 81.4667 35.4109 80.5215 35.4109C79.6944 35.2927 79.1036 35.3518 78.7492 35.5881C78.3947 35.7062 78.0402 35.7653 77.6858 35.7653C77.3313 35.6472 76.9769 35.5881 76.6224 35.5881C76.3861 35.9425 76.0316 36.1198 75.559 36.1198C75.2045 36.1198 74.9092 36.2379 74.6728 36.4742C74.0821 36.7105 73.5504 37.065 73.0778 37.5376C72.7233 37.8921 72.1916 37.9512 71.4827 37.7149C71.0101 38.3056 70.7147 38.601 70.5965 38.601C70.4784 38.601 70.183 38.7192 69.7104 38.9555C69.1196 39.6644 68.7651 40.0189 68.647 40.0189C68.5288 40.0189 68.3516 40.0779 68.1153 40.1961C67.7608 40.4324 67.4654 40.7869 67.2291 41.2595C67.111 41.6139 66.9337 41.9093 66.6974 42.1456C66.2248 42.7364 65.3387 43.7407 64.039 45.1586C62.8574 46.4583 61.9713 47.2854 61.3805 47.6398C61.1442 48.2306 60.9079 48.8214 60.6716 49.4121C60.4353 50.0029 60.0808 50.5937 59.6082 51.1844C59.1356 52.1297 58.6629 53.3112 58.1903 54.7291C57.8359 56.1469 57.7177 56.974 57.8359 57.2103C57.954 57.3285 58.2494 57.4466 58.722 57.5648C59.3128 57.5648 59.9626 57.6238 60.6716 57.742C61.3805 57.742 62.0303 57.742 62.6211 57.742C63.2119 57.742 63.6254 57.742 63.8617 57.742C65.634 57.2694 66.9337 57.0922 67.7608 57.2103C68.5879 57.2103 69.415 57.0922 70.2421 56.8558C71.3054 57.3285 72.0144 57.4466 72.3688 57.2103C72.7233 56.974 73.3141 56.8558 74.1411 56.8558C75.0864 56.8558 76.1498 56.974 77.3313 57.2103C78.631 57.4466 79.399 57.6238 79.6353 57.742C82.471 58.3328 84.8341 58.8054 86.7246 59.1599C88.615 59.3962 90.4464 59.2189 92.2187 58.6282C92.5732 58.9826 92.9277 59.1008 93.2821 58.9826C93.6366 58.8645 94.0501 58.8054 94.5228 58.8054C94.6409 59.0417 94.9363 59.1599 95.4089 59.1599C95.8815 59.1599 96.4132 59.1599 97.004 59.1599C97.5948 59.0417 98.1265 58.9826 98.5991 58.9826C99.1898 58.8645 99.6034 58.8054 99.8397 58.8054C100.549 58.6872 101.317 58.7463 102.144 58.9826C102.971 59.1008 103.739 59.0417 104.448 58.8054Z" fill="#0B284A"/>
<path d="M33.3786 105.772C33.0241 106.126 32.4333 106.481 31.6063 106.835C30.8973 107.19 30.0703 107.544 29.125 107.898C28.1798 108.253 27.2346 108.548 26.2893 108.785C25.4622 109.021 24.8715 109.139 24.517 109.139C24.0444 109.139 23.5718 109.08 23.0992 108.962C22.7447 108.726 22.2721 108.607 21.6813 108.607C20.3816 108.371 19.0228 108.253 17.605 108.253C16.1871 108.135 14.8284 107.958 13.5287 107.721C12.1108 107.485 10.2794 107.544 8.03449 107.898C5.78956 108.135 4.19448 108.135 3.24924 107.898C2.77662 107.662 2.36308 107.308 2.00862 106.835C1.65416 106.362 1.2997 105.949 0.945234 105.594C0 104.413 -0.236309 103.29 0.236309 102.227C0.82708 101.046 1.53601 99.9821 2.36308 99.0369C2.95386 99.0369 3.42647 98.9187 3.78094 98.6824C4.25355 98.4461 4.78525 98.328 5.37602 98.328C7.14833 97.8553 8.74341 97.619 10.1613 97.619C11.5791 97.5009 12.7607 97.4418 13.7059 97.4418C14.2967 96.851 14.533 96.2603 14.4148 95.6695C14.2967 94.9606 14.2376 94.2516 14.2376 93.5427C14.2376 93.1882 14.2376 92.8338 14.2376 92.4793C14.3557 92.1249 14.4148 91.7113 14.4148 91.2387C14.0604 89.7027 13.9422 88.6984 14.0604 88.2258C14.1785 87.7532 14.2376 87.2215 14.2376 86.6307C14.2376 86.1581 14.1194 85.7445 13.8831 85.3901C13.765 84.9174 13.7059 84.4448 13.7059 83.9722C13.824 83.3814 13.9422 82.8497 14.0604 82.3771C14.2967 81.7864 14.4148 81.1956 14.4148 80.6048C14.533 79.5414 14.533 78.8325 14.4148 78.478C14.4148 78.1236 14.4148 77.71 14.4148 77.2374C14.4148 75.9377 14.4739 75.1697 14.5921 74.9334C14.7102 74.579 14.7693 74.2836 14.7693 74.0473C15.0056 73.102 15.0647 72.1568 14.9465 71.2116C14.9465 70.1482 15.0056 69.1439 15.1237 68.1986C15.1237 67.3715 15.1828 66.5445 15.301 65.7174C15.4191 64.8903 15.4782 64.0632 15.4782 63.2361C15.4782 62.2909 15.4191 61.4638 15.301 60.7549C15.301 59.9278 15.3601 59.0417 15.4782 58.0964C15.4782 57.742 15.5373 57.3284 15.6554 56.8558C15.8917 56.3832 15.9508 55.9697 15.8327 55.6152C15.7145 54.1973 15.7736 53.0158 16.0099 52.0706C16.3644 51.0072 16.4825 50.0029 16.3644 49.0576L16.5416 46.9309C16.6597 46.4582 16.7779 45.7493 16.8961 44.8041C17.0142 43.7407 17.0142 42.9136 16.8961 42.3228C16.7779 41.3776 16.7779 40.8459 16.8961 40.7278C17.0142 40.4915 17.0733 40.2551 17.0733 40.0188C17.1914 38.7191 17.2505 37.7148 17.2505 37.0059C17.3687 36.1788 17.3096 35.4699 17.0733 34.8791C17.1914 34.5247 17.3096 34.2293 17.4278 33.993C17.5459 33.6385 17.6641 33.284 17.7822 32.9296C17.9004 32.2207 18.0185 30.921 18.1367 29.0305C18.2548 27.0219 18.373 24.9542 18.4911 22.8274C18.6093 20.5825 18.6684 18.5148 18.6684 16.6243C18.6684 14.7338 18.6093 13.4341 18.4911 12.7252C18.373 12.2526 18.1367 11.8391 17.7822 11.4846C17.5459 11.012 17.3096 10.5394 17.0733 10.0667C16.3644 9.83043 15.3601 9.88951 14.0604 10.244C12.7607 10.4803 11.4019 10.7757 9.98403 11.1301C8.56618 11.4846 7.20741 11.78 5.90771 12.0163C4.72617 12.2526 3.78094 12.2526 3.07201 12.0163C2.71755 11.78 2.48124 11.6027 2.36308 11.4846C2.24493 11.2483 2.0677 10.9529 1.83139 10.5984C1.24062 10.0077 0.82708 9.59412 0.590771 9.35782C0.472617 9.00335 0.82708 8.47166 1.65416 7.76273C1.53601 7.40827 1.41785 7.11288 1.2997 6.87658C1.18154 6.52211 1.24062 6.16765 1.47693 5.81319C2.0677 5.22242 2.59939 4.69072 3.07201 4.21811C3.66278 3.74549 4.43078 3.39103 5.37602 3.15472C5.73048 3.03656 6.08494 3.03656 6.43941 3.15472C6.91202 3.15472 7.32556 3.15472 7.68003 3.15472C8.38895 3.03656 9.0388 2.85933 9.62957 2.62302C10.3385 2.26856 11.0474 2.03225 11.7563 1.9141C12.1108 1.79594 12.4653 1.79594 12.8197 1.9141C13.1742 2.03225 13.4696 2.03225 13.7059 1.9141C14.2967 1.67779 14.7693 1.44148 15.1237 1.20517C15.5964 0.850711 16.1281 0.673479 16.7188 0.673479C17.3096 0.555325 17.8413 0.555325 18.3139 0.673479C18.9047 0.791633 19.4955 0.850711 20.0862 0.850711C20.9133 0.732556 21.7404 0.555325 22.5675 0.319016C23.5127 -0.0354463 24.4579 -0.0945234 25.4032 0.141785C25.6395 0.259939 25.9939 0.614402 26.4666 1.20517C27.0573 1.67779 27.5299 2.03225 27.8844 2.26856C27.7662 2.97749 27.7662 3.74549 27.8844 4.57257C28.1207 5.28149 28.1798 5.99042 28.0616 6.69935C28.0616 7.05381 28.0026 7.40827 27.8844 7.76273C27.7662 7.99904 27.7072 8.29443 27.7072 8.64889C27.7072 9.00335 27.7662 9.35782 27.8844 9.71228C28.0026 9.94859 28.0616 10.244 28.0616 10.5984C28.1798 11.4255 28.1207 12.2526 27.8844 13.0797C27.7662 13.7886 27.7072 14.4975 27.7072 15.2065C27.589 15.6791 27.589 16.0926 27.7072 16.4471C27.8253 16.8015 27.8844 17.2151 27.8844 17.6877C27.8844 18.0422 27.8253 18.3966 27.7072 18.7511C27.589 19.1055 27.589 19.5191 27.7072 19.9917C27.7072 20.3462 27.7662 20.7006 27.8844 21.0551C28.0026 21.2914 28.0616 21.5868 28.0616 21.9412C28.0616 22.532 28.0616 23.4772 28.0616 24.7769C28.0616 26.0766 28.0026 27.4945 27.8844 29.0305C27.8844 30.5665 27.7662 31.9844 27.5299 33.284C27.4118 34.5837 27.2936 35.4699 27.1755 35.9425C27.6481 36.8878 27.7662 37.5376 27.5299 37.8921C27.2936 38.2465 27.2346 38.4828 27.3527 38.601C27.3527 38.9555 27.3527 39.7825 27.3527 41.0822C27.3527 42.3819 27.2936 43.7407 27.1755 45.1586C27.1755 46.5764 27.1164 47.8761 26.9982 49.0576C26.8801 50.2392 26.7619 50.9481 26.6438 51.1844C26.053 53.7838 25.8758 55.9697 26.1121 57.742C26.4666 59.3961 26.4666 60.814 26.1121 61.9955C25.9939 62.2318 25.9349 62.7045 25.9349 63.4134C25.9349 64.0041 25.9349 64.4177 25.9349 64.654C25.9349 65.2448 25.9939 65.7765 26.1121 66.2491C26.2302 66.7217 26.1712 67.2534 25.9349 67.8442C25.6985 68.4349 25.6395 69.0848 25.7576 69.7937C25.9939 70.5026 26.053 71.1525 25.9349 71.7433C25.9349 72.2159 25.8758 72.6885 25.7576 73.1611C25.6395 73.5156 25.5804 73.87 25.5804 74.2245C25.3441 75.7605 25.2259 77.2374 25.2259 78.6553C25.3441 80.0731 25.4032 81.491 25.4032 82.9088C25.4032 83.3814 25.4032 83.8541 25.4032 84.3267C25.4032 84.7993 25.285 85.2128 25.0487 85.5673C25.8758 87.8122 26.1712 89.939 25.9349 91.9476C25.8167 93.9562 25.7576 96.083 25.7576 98.328C26.4666 98.8006 27.2346 99.0369 28.0616 99.0369C28.8887 99.0369 29.6567 99.2141 30.3656 99.5686L31.7835 100.809C32.6106 102.227 33.0832 103.29 33.2013 103.999C33.3195 104.59 33.3786 105.181 33.3786 105.772Z" fill="#0B284A"/>
<path d="M228.1 118.709C226.607 118.709 225.358 118.202 224.35 117.187C223.342 116.173 222.837 114.918 222.833 113.425C222.83 111.931 223.335 110.677 224.35 109.662C225.365 108.647 226.614 108.14 228.1 108.14C229.585 108.14 230.836 108.647 231.854 109.662C232.873 110.677 233.376 111.931 233.366 113.425C233.355 114.918 232.85 116.174 231.849 117.193C230.849 118.211 229.599 118.716 228.1 118.709ZM249.165 118.709C247.673 118.709 246.423 118.202 245.415 117.187C244.408 116.173 243.902 114.918 243.898 113.425C243.895 111.931 244.401 110.677 245.415 109.662C246.43 108.647 247.68 108.14 249.165 108.14C250.65 108.14 251.902 108.647 252.92 109.662C253.938 110.677 254.442 111.931 254.431 113.425C254.421 114.918 253.915 116.174 252.914 117.193C251.914 118.211 250.664 118.716 249.165 118.709ZM270.23 118.709C268.738 118.709 267.488 118.202 266.48 117.187C265.473 116.173 264.967 114.918 264.964 113.425C264.96 111.931 265.466 110.677 266.48 109.662C267.495 108.647 268.745 108.14 270.23 108.14C271.715 108.14 272.967 108.647 273.985 109.662C275.003 110.677 275.507 111.931 275.496 113.425C275.486 114.918 274.98 116.174 273.98 117.193C272.979 118.211 271.729 118.716 270.23 118.709Z" fill="#FBBC05"/>
<path d="M248.417 67.3277C243.754 67.3277 239.791 65.7313 236.527 62.5387C233.264 59.3461 231.632 55.4693 231.632 50.9084V18.0698C231.632 13.5089 233.264 9.63216 236.527 6.43953C239.791 3.24689 243.754 1.65057 248.417 1.65057C253.079 1.65057 257.043 3.24689 260.306 6.43953C263.57 9.63216 265.202 13.5089 265.202 18.0698V50.9084C265.202 55.4693 263.57 59.3461 260.306 62.5387C257.043 65.7313 253.079 67.3277 248.417 67.3277ZM242.822 100.166V88.8095C234.243 87.6237 226.9 84.0662 220.794 78.137C214.688 72.2078 210.98 65.0016 209.671 56.5183C209.485 54.9676 209.904 53.6449 210.93 52.5503C211.956 51.4557 213.261 50.9084 214.847 50.9084C216.432 50.9084 217.762 51.4338 218.836 52.4846C219.91 53.5355 220.632 54.8344 221.001 56.3815C222.307 62.7668 225.548 68.0118 230.725 72.1166C235.903 76.2214 241.8 78.2738 248.417 78.2738C255.131 78.2738 261.052 76.1995 266.181 72.0509C271.31 67.9023 274.527 62.6792 275.833 56.3815C276.206 54.8308 276.929 53.5318 278.003 52.4846C279.078 51.4375 280.406 50.912 281.987 50.9084C283.569 50.9047 284.874 51.4521 285.904 52.5503C286.933 53.6486 287.353 54.9712 287.163 56.5183C285.857 64.8192 282.174 71.9798 276.112 78.0002C270.051 84.0206 262.684 87.6237 254.012 88.8095V100.166C254.012 101.717 253.475 103.018 252.401 104.069C251.326 105.119 249.998 105.643 248.417 105.639C246.835 105.636 245.507 105.11 244.433 104.063C243.359 103.016 242.822 101.717 242.822 100.166Z" fill="#FBBC05"/>
</svg>
